<?xml version="1.0" encoding="UTF-8"?>
<svg id="Layer_2" data-name="Layer 2" xmlns="http://www.w3.org/2000/svg" viewBox="0 0 357.03 289.5">
  <defs>
    <style>
      .cls-1, .cls-2, .cls-3, .cls-4, .cls-5, .cls-6, .cls-7, .cls-8, .cls-9, .cls-10, .cls-11, .cls-12, .cls-13, .cls-14, .cls-15, .cls-16, .cls-17, .cls-18, .cls-19, .cls-20, .cls-21 {
        stroke-miterlimit: 10;
      }

      .cls-1, .cls-2, .cls-3, .cls-4, .cls-6, .cls-7, .cls-8, .cls-9, .cls-10, .cls-11, .cls-12, .cls-13, .cls-16, .cls-17, .cls-18, .cls-19, .cls-20, .cls-21 {
        fill: none;
      }

      .cls-1, .cls-2, .cls-14 {
        stroke: #ffa594;
      }

      .cls-1, .cls-3, .cls-6, .cls-10, .cls-18, .cls-21 {
        stroke-width: 10px;
      }

      .cls-2, .cls-4, .cls-7, .cls-12, .cls-16, .cls-20 {
        stroke-width: 7px;
      }

      .cls-3, .cls-4, .cls-15 {
        stroke: #90cce7;
      }

      .cls-22, .cls-5 {
        fill: #cb82c0;
      }

      .cls-23, .cls-24, .cls-25, .cls-26 {
        fill: #fff;
      }

      .cls-23, .cls-27 {
        font-family: BaiJamjuree-Regular, 'Bai Jamjuree';
        font-size: 166.03px;
      }

      .cls-28 {
        fill: #e87763;
      }

      .cls-5, .cls-9, .cls-13, .cls-14, .cls-15, .cls-19 {
        stroke-width: 4px;
      }

      .cls-5, .cls-20, .cls-21 {
        stroke: #cb82c0;
      }

      .cls-29 {
        fill: #ac64a0;
      }

      .cls-6, .cls-7, .cls-8, .cls-9 {
        stroke: #ac64a0;
      }

      .cls-8, .cls-11, .cls-17 {
        stroke-width: 5px;
      }

      .cls-30 {
        fill: #e77662;
      }

      .cls-31, .cls-32, .cls-25, .cls-26 {
        font-family: BaiJamjuree-SemiBold, 'Bai Jamjuree';
        font-weight: 600;
      }

      .cls-31, .cls-32, .cls-27 {
        fill: #738c0a;
      }

      .cls-31, .cls-26 {
        font-size: 98.28px;
      }

      .cls-33 {
        fill: #29ade2;
      }

      .cls-10, .cls-11, .cls-12, .cls-13 {
        stroke: #25ace1;
      }

      .cls-14, .cls-34 {
        fill: #ffa594;
      }

      .cls-32, .cls-25 {
        font-size: 54.68px;
      }

      .cls-15, .cls-35 {
        fill: #90cce7;
      }

      .cls-36 {
        fill: #ab64a0;
      }

      .cls-37 {
        fill: #25ace1;
      }

      .cls-16, .cls-17, .cls-18, .cls-19 {
        stroke: #e87763;
      }
    </style>
  </defs>
  <g>
    <g>
      <g>
        <g>
          <circle class="cls-24" cx="295.37" cy="61.31" r="24.57"/>
          <path class="cls-24" d="M316.19,61.31c-.32,11.35-9.23,20.82-20.82,20.82s-20.78-9.47-20.82-20.82,9.5-20.82,20.82-20.82,20.5,9.47,20.82,20.82c.13,4.82,7.63,4.84,7.5,0-.33-11.89-7.39-22.47-18.69-26.62s-23.9-.53-31.39,8.53c-16.53,19.99,1.39,50.5,26.88,45.93,13.54-2.43,22.83-14.36,23.2-27.84.13-4.83-7.37-4.82-7.5,0Z"/>
        </g>
        <g>
          <path class="cls-24" d="M295.37,87.88c-14.65,0-26.57-11.92-26.57-26.57s11.92-26.57,26.57-26.57,26.57,11.92,26.57,26.57-11.92,26.57-26.57,26.57ZM295.37,38.74c-12.45,0-22.57,10.12-22.57,22.57s10.12,22.57,22.57,22.57,22.57-10.12,22.57-22.57-10.12-22.57-22.57-22.57Z"/>
          <g>
            <path class="cls-24" d="M295.37,84.13c-12.44-.32-22.79-10.15-22.82-22.82s10.41-22.85,22.82-22.82,22.82,10.37,22.82,22.82-10.4,22.51-22.82,22.82c-4.82.12-4.84,7.62,0,7.5,12.55-.32,23.79-7.74,28.33-19.59s.92-25.73-8.79-33.87c-9.81-8.23-24.2-9.5-35.2-2.81s-16.38,19.27-14.1,31.65c2.64,14.36,15.45,24.27,29.76,24.63,4.83.12,4.83-7.38,0-7.5Z"/>
            <path class="cls-24" d="M295.37,34.99c-10.84.33-20.54,6.62-24.53,16.85s-.83,22.67,7.84,29.78c18.51,15.16,46.41-1.24,42.6-24.69-2.07-12.75-13.28-21.56-25.92-21.94-4.83-.15-4.82,7.36,0,7.5,10.23.31,18.82,8.34,18.82,18.82s-8.57,18.78-18.82,18.82-18.45-8.18-18.8-18.13c-.38-10.75,8.29-19.19,18.8-19.51,4.82-.14,4.84-7.65,0-7.5Z"/>
          </g>
        </g>
      </g>
      <g>
        <g>
          <path class="cls-24" d="M282.26,83.17c-3.83,7.36-8.07,17.14-11.13,29.09-2.83,11.05-3.87,20.92-4.16,28.8,6.24,2.51,17.7,6.14,32.21,5.2,19.28-1.26,32.81-9.88,38.44-13.95-2.34-7.36-5.53-15.73-9.94-24.64-5.34-10.78-11.15-19.72-16.48-26.87"/>
          <path class="cls-24" d="M279.03,81.28c-9.57,18.58-14.94,38.9-15.8,59.78-.07,1.78,1.24,3.02,2.75,3.62,24.33,9.62,52.29,6.1,73.54-9.14,1.32-.94,2.26-2.56,1.72-4.23-6.07-18.81-15.05-36.5-26.8-52.4-2.84-3.84-9.35-.1-6.48,3.79,11.37,15.39,20.17,32.4,26.04,50.61l1.72-4.23c-19.8,14.19-45.08,17.35-67.76,8.38l2.75,3.62c.8-19.53,5.82-38.61,14.78-56,2.21-4.28-4.26-8.08-6.48-3.79h0Z"/>
        </g>
        <g>
          <path class="cls-24" d="M294.53,148.4c-9.62,0-19.31-1.87-28.3-5.49l-1.3-.52.05-1.4c.36-9.85,1.78-19.68,4.22-29.22,2.62-10.22,6.42-20.15,11.3-29.52l3.55,1.85c-4.74,9.1-8.43,18.74-10.97,28.67-2.25,8.81-3.61,17.87-4.04,26.96,9.57,3.63,19.92,5.2,30.02,4.54,16.1-1.05,28.42-7.33,36.22-12.74-2.57-7.86-5.72-15.58-9.38-22.97-4.6-9.3-10.08-18.23-16.29-26.56l3.21-2.39c6.35,8.52,11.96,17.66,16.66,27.17,3.97,8.01,7.35,16.39,10.06,24.92l.44,1.38-1.17.85c-8.14,5.89-21.6,13.16-39.49,14.33-1.59.1-3.19.16-4.79.16Z"/>
          <path class="cls-24" d="M294.53,144.65c-9.95-.12-19.4-2.18-28.61-5.88l2.75,3.62c.74-20.38,5.75-40.09,15.05-58.25l-5.13,1.35,3.55,1.85-1.35-5.13c-9.2,17.96-14.44,37.37-15.52,57.51-.09,1.74,1.25,3.07,2.75,3.62,23.14,8.45,48.78,5.31,69.13-8.58,1.32-.9,2.27-2.6,1.72-4.23-6.02-18.1-14.73-35.06-26.05-50.42l-1.35,5.13,3.21-2.39-5.13-1.35c11.8,16,20.77,33.63,26.78,52.58l1.72-4.23c-12.87,9.32-27.57,14.65-43.55,14.82-4.82.05-4.84,7.55,0,7.5,17.21-.19,33.44-5.78,47.33-15.84,1.32-.95,2.26-2.55,1.72-4.23-6.21-19.55-15.36-37.85-27.54-54.37-1.1-1.49-3.37-2.66-5.13-1.35l-3.21,2.39c-1.49,1.11-2.65,3.36-1.35,5.13,10.94,14.84,19.47,31.13,25.29,48.63l1.72-4.23c-18.85,12.86-41.91,15.65-63.35,7.82l2.75,3.62c1.01-18.79,5.91-36.98,14.49-53.73.89-1.73.53-4.15-1.35-5.13l-3.55-1.85c-1.72-.9-4.17-.53-5.13,1.35-9.92,19.36-15.29,40.31-16.08,62.04-.06,1.79,1.24,3.01,2.75,3.62,9.81,3.95,20.02,6.02,30.6,6.15,4.83.06,4.83-7.44,0-7.5Z"/>
        </g>
      </g>
      <g>
        <path class="cls-24" d="M249.3,120.87l-1.96-6.72,12.81-3.73c1.69-6.7,4.43-12.99,8.17-18.73,2.81-4.32,6.18-8.3,9.99-11.81l4.74,5.15c-3.39,3.12-6.37,6.64-8.87,10.48-3.65,5.61-6.24,11.82-7.68,18.45l-.44,2.03-16.78,4.88Z"/>
        <path class="cls-24" d="M252.92,119.87l-1.96-6.72-2.62,4.61,6.86-2c2.05-.6,5.02-.89,6.85-2.11s2.02-3.53,2.66-5.55c1.09-3.5,2.5-6.88,4.25-10.12,3.14-5.83,7.22-10.92,12.02-15.46h-5.3l4.74,5.15v-5.3c-9.4,8.93-15.21,20.01-17.95,32.62l2.62-2.62c-5.59,1.63-11.18,3.25-16.78,4.88-4.63,1.35-2.66,8.59,1.99,7.23,5.59-1.63,11.18-3.25,16.78-4.88,1.21-.35,2.34-1.35,2.62-2.62,2.49-11.44,7.48-21.2,16.02-29.31,1.51-1.44,1.34-3.84,0-5.3l-4.74-5.15c-1.4-1.52-3.88-1.35-5.3,0-9.33,8.83-15.82,19.79-19.13,32.2l2.62-2.62c-4.27,1.24-8.54,2.49-12.81,3.73-1.92.56-3.19,2.64-2.62,4.61l1.96,6.72c1.35,4.63,8.58,2.66,7.23-1.99Z"/>
      </g>
      <g>
        <path class="cls-24" d="M349.24,112.59l-6.99-.36c.19-3.73-.15-7.46-1.04-11.09-.81-3.35-2.07-6.56-3.74-9.57l-25.45-6.94,1.84-6.75,28.2,7.68.72,1.2c2.38,3.96,4.14,8.23,5.23,12.72,1.04,4.29,1.45,8.7,1.22,13.11Z"/>
        <path class="cls-24" d="M349.24,108.84l-6.99-.36,3.75,3.75c.19-6.71-.68-17.12-5.28-22.55-1.81-2.13-4.74-2.41-7.35-3.11-6.78-1.85-13.56-3.7-20.35-5.54l2.62,4.61,1.84-6.75-4.61,2.62c9.4,2.56,18.8,5.12,28.2,7.68l-2.24-1.72c4.7,7.81,6.95,16,6.67,25.13-.15,4.83,7.35,4.82,7.5,0,.3-9.47-1.84-18.71-6.54-26.97-1.95-3.42-3.92-3.82-7.45-4.78-8.05-2.19-16.09-4.39-24.14-6.58-1.95-.53-4.08.66-4.61,2.62l-1.84,6.75c-.53,1.95.66,4.08,2.62,4.61,8.48,2.31,16.97,4.62,25.45,6.94l-2.24-1.72c3.11,5.92,4.45,12.08,4.26,18.76-.06,2.1,1.77,3.65,3.75,3.75l6.99.36c4.82.25,4.81-7.25,0-7.5Z"/>
      </g>
      <g>
        <path class="cls-24" d="M290.54,195.06l-9.98-.58c.66-11.29,1.96-22.66,3.89-33.8.9-5.19,1.94-10.43,3.11-15.55l9.75,2.22c-1.13,4.96-2.14,10.02-3.01,15.04-1.86,10.76-3.12,21.76-3.76,32.67Z"/>
        <path class="cls-24" d="M290.54,191.31l-9.98-.58,3.75,3.75c1-16.3,3.29-32.42,6.86-48.35l-4.61,2.62,9.75,2.22-2.62-4.61c-3.59,16.04-5.89,32.31-6.9,48.71-.3,4.82,7.2,4.8,7.5,0,.97-15.75,3.18-31.32,6.63-46.72.43-1.91-.57-4.15-2.62-4.61l-9.75-2.22c-1.9-.43-4.15.57-4.61,2.62-3.72,16.57-6.09,33.39-7.13,50.35-.13,2.11,1.83,3.64,3.75,3.75l9.98.58c4.82.28,4.81-7.22,0-7.5Z"/>
      </g>
      <g>
        <path class="cls-24" d="M330.74,192.93c-3.3-8.17-6.57-16.45-9.7-24.63-2.99-7.81-5.94-15.72-8.77-23.51l9.4-3.41c2.81,7.73,5.74,15.59,8.71,23.35,3.11,8.12,6.35,16.35,9.63,24.46l-9.27,3.75Z"/>
        <path class="cls-24" d="M334.36,191.93c-6.44-15.94-12.6-31.99-18.47-48.14l-2.62,4.61,9.4-3.41-4.61-2.62c5.83,16.04,11.95,31.98,18.34,47.8l2.62-4.61-9.27,3.75c-4.42,1.79-2.49,9.05,1.99,7.23l9.27-3.75c1.71-.69,3.45-2.56,2.62-4.61-6.39-15.83-12.51-31.76-18.34-47.8-.65-1.79-2.58-3.36-4.61-2.62l-9.4,3.41c-1.79.65-3.36,2.59-2.62,4.61,5.87,16.16,12.03,32.2,18.47,48.14,1.78,4.42,9.04,2.49,7.23-1.99Z"/>
      </g>
      <g>
        <path class="cls-24" d="M246.45,110.9c-.46-.28-4.45-2.63-6.58-1.04-.89.66-1.54,2.08-1.11,2.91.15.29.44.53,1.95.96.89.25,2.03.52,3.38.7-1.67,1.05-3.13,1.54-4.13,1.79-2.17.54-3.73.35-4.46,1.47-.3.46-.25.97-.28,1.87-.06,2.37.79,5.2,2.29,6.58,3.42,3.18,12.82,1.24,14.55-4.5,1.33-4.43-2.58-8.91-5.61-10.74Z"/>
        <path class="cls-24" d="M248.34,107.66c-3.84-2.26-9.44-3.43-12.32.92-1.31,1.97-1.61,4.76-.05,6.67s4.73,2.42,7.13,2.8l-.9-6.85c-2.56,1.48-5.74,1.22-8.16,2.8-2.56,1.67-2.77,4.63-2.44,7.4.7,6.04,4.78,10.11,10.94,10.01,5.1-.08,10.65-2.77,12.7-7.65,2.67-6.35-1.7-12.69-6.9-16.09-4.05-2.65-7.81,3.84-3.79,6.48,2.07,1.36,5.13,4.42,3.6,7.11-1.06,1.87-3.97,2.73-5.97,2.66-3.05-.1-2.4-2.01-3.21-4.35.13-1.05,0-1.05-.39,0-.68.82-.55,1.04.41.64.63.13,1.71-.31,2.29-.47,1.65-.46,3.22-1.22,4.7-2.08,2.56-1.48,2.42-6.34-.9-6.85-.9-.14-1.78-.3-2.67-.51-.34-.09-.67-.18-1.01-.27-1.26-.42-1.09.59.51,3.03.6.48,1.89.63,2.64,1.07,4.17,2.45,7.95-4.03,3.79-6.48Z"/>
      </g>
      <g>
        <path class="cls-24" d="M337.48,111.89c-.36.39-3.47,3.83-2.34,6.24.47,1.01,1.72,1.93,2.63,1.67.31-.09.61-.32,1.33-1.72.43-.82.92-1.88,1.37-3.17.69,1.85.88,3.37.92,4.41.1,2.23-.4,3.73.54,4.66.39.38.9.45,1.78.65,2.31.53,5.25.27,6.91-.92,3.8-2.72,3.79-12.31-1.49-15.16-4.08-2.2-9.24.74-11.65,3.34Z"/>
        <path class="cls-24" d="M334.83,109.24c-3.11,3.46-5.49,8.76-1.52,12.56,1.84,1.76,4.83,2.46,6.97.84,2.02-1.53,2.96-4.45,3.81-6.73h-7.23c.95,2.83.15,5.82,1.1,8.55,1.08,3.1,4.16,3.89,7.11,4.12,5.86.45,10.58-2.79,11.68-8.61.94-4.98-.41-10.75-4.6-13.89-5.54-4.15-12.92-1.28-17.32,3.16-3.4,3.43,1.9,8.74,5.3,5.3,1.81-1.83,5.6-4.46,7.96-2.11,1.43,1.42,1.66,4,1.36,5.88-.48,3.01-2.17,2.52-4.74,2.7l-.76-.17c.84,1.54,1.23,1.84,1.16.88.26-.55.07-1.76.04-2.41-.09-1.86-.47-3.64-1.06-5.4-1.22-3.64-5.95-3.46-7.23,0-.27.72-.77,1.55-.99,2.28l-.47.85c1.92,1.01,3.03.91,3.33-.29.55-.51.85-1.59,1.41-2.2,3.22-3.58-2.07-8.9-5.3-5.3Z"/>
      </g>
      <g>
        <path class="cls-24" d="M283.86,190.29c-6.94,2.45-12.68-3.53-17.43-1.07-2.31,1.19-4.6,4.49-4.65,13.68l28.3,2.19c.43-7.26.85-14.51,1.28-21.77-1.44,2.56-3.79,5.67-7.5,6.98Z"/>
        <path class="cls-24" d="M282.87,186.67c-6.55,1.79-12.96-4.46-19.24-.1-5.03,3.49-5.47,10.8-5.59,16.32-.05,2.14,1.76,3.6,3.75,3.75l28.3,2.19c2.11.16,3.64-1.85,3.75-3.75.43-7.26.85-14.51,1.28-21.77.22-3.82-5.17-4.96-6.99-1.89-1.56,2.62-3.31,4.41-6.15,5.63-4.42,1.9-.61,8.36,3.79,6.48,3.94-1.69,6.68-4.69,8.84-8.32l-6.99-1.89c-.43,7.26-.85,14.51-1.28,21.77l3.75-3.75-28.3-2.19,3.75,3.75c.07-3.01-.32-10.4,4.09-10.51,2.4-.06,5.2,1.54,7.58,1.95,2.63.45,5.08.28,7.66-.43,4.65-1.27,2.68-8.51-1.99-7.23Z"/>
      </g>
      <g>
        <path class="cls-24" d="M330.44,183.67c-5.03,5.37-12.88,2.72-15.96,7.09-1.5,2.12-2.01,6.11,2.18,14.28,8.71-3.7,17.41-7.41,26.12-11.11-2.97-6.63-5.94-13.27-8.9-19.9-.1,2.94-.75,6.78-3.43,9.65Z"/>
        <path class="cls-24" d="M327.79,181.02c-4.85,4.53-13.14,1.93-16.85,8.33-3.2,5.51,0,12.5,2.49,17.58.97,1.98,3.38,2.09,5.13,1.35,8.71-3.7,17.41-7.41,26.12-11.11,2-.85,2.08-3.48,1.35-5.13-2.97-6.63-5.94-13.27-8.9-19.9-1.64-3.66-6.8-1.46-6.99,1.89-.15,2.56-.67,4.96-2.34,6.99-3.03,3.71,2.24,9.04,5.3,5.3s4.26-7.57,4.53-12.3l-6.99,1.89c2.97,6.63,5.94,13.27,8.9,19.9l1.35-5.13c-8.71,3.7-17.41,7.41-26.12,11.11l5.13,1.35c-1.65-3.36-5.28-9.75-.03-11.35s9.19-1.7,13.23-5.47c3.54-3.3-1.78-8.59-5.3-5.3Z"/>
      </g>
    </g>
    <g>
      <path class="cls-24" d="M293.35,87.94c-14.65,0-26.57-11.92-26.57-26.57s11.92-26.57,26.57-26.57,26.57,11.92,26.57,26.57-11.92,26.57-26.57,26.57ZM293.35,38.8c-12.45,0-22.57,10.12-22.57,22.57s10.12,22.57,22.57,22.57,22.57-10.12,22.57-22.57-10.12-22.57-22.57-22.57Z"/>
      <g>
        <path class="cls-24" d="M293.35,84.19c-12.44-.32-22.79-10.15-22.82-22.82-.03-12.41,10.42-22.85,22.82-22.82s22.82,10.37,22.82,22.82-10.4,22.51-22.82,22.82c-4.82.12-4.84,7.62,0,7.5,12.55-.32,23.79-7.74,28.33-19.59s.92-25.73-8.79-33.87c-9.81-8.23-24.2-9.5-35.2-2.81-10.78,6.56-16.38,19.27-14.1,31.65,2.64,14.36,15.45,24.27,29.76,24.63,4.83.12,4.83-7.38,0-7.5Z"/>
        <path class="cls-24" d="M293.35,35.05c-10.84.33-20.54,6.62-24.53,16.85s-.83,22.67,7.84,29.78c18.51,15.16,46.41-1.24,42.61-24.69-2.07-12.75-13.28-21.56-25.92-21.94-4.83-.15-4.82,7.36,0,7.5,10.24.31,18.82,8.34,18.82,18.82s-8.57,18.78-18.82,18.82-18.45-8.18-18.8-18.13c-.38-10.75,8.29-19.19,18.8-19.51,4.82-.14,4.84-7.65,0-7.5Z"/>
      </g>
    </g>
    <g>
      <path class="cls-24" d="M292.5,148.46c-9.61,0-19.31-1.87-28.3-5.49l-1.3-.52.05-1.4c.36-9.85,1.78-19.68,4.22-29.22,2.62-10.22,6.42-20.16,11.3-29.52l3.55,1.85c-4.74,9.09-8.43,18.74-10.97,28.66-2.25,8.81-3.61,17.87-4.04,26.96,9.57,3.63,19.92,5.2,30.02,4.54,16.1-1.05,28.42-7.33,36.22-12.74-2.57-7.85-5.72-15.58-9.38-22.97-4.6-9.29-10.08-18.23-16.29-26.56l3.21-2.39c6.35,8.52,11.96,17.66,16.66,27.17,3.97,8.01,7.35,16.4,10.06,24.92l.44,1.38-1.17.85c-8.14,5.89-21.6,13.16-39.49,14.33-1.59.1-3.19.16-4.79.16Z"/>
      <path class="cls-24" d="M292.5,144.71c-9.95-.12-19.39-2.18-28.61-5.88l2.75,3.62c.74-20.38,5.75-40.09,15.05-58.25l-5.13,1.35,3.55,1.85-1.35-5.13c-9.2,17.96-14.43,37.37-15.52,57.51-.09,1.74,1.25,3.07,2.75,3.62,23.14,8.45,48.78,5.31,69.13-8.58,1.32-.9,2.27-2.6,1.72-4.23-6.03-18.11-14.72-35.05-26.05-50.42l-1.35,5.13,3.21-2.39-5.13-1.35c11.8,16.01,20.77,33.63,26.78,52.58l1.72-4.23c-12.87,9.32-27.57,14.65-43.55,14.82-4.82.05-4.84,7.55,0,7.5,17.21-.19,33.44-5.78,47.33-15.84,1.32-.95,2.26-2.55,1.72-4.23-6.21-19.55-15.36-37.85-27.54-54.37-1.1-1.49-3.37-2.66-5.13-1.35l-3.21,2.39c-1.49,1.11-2.65,3.36-1.35,5.13,10.94,14.85,19.46,31.13,25.29,48.63l1.72-4.23c-18.85,12.86-41.91,15.65-63.35,7.82l2.75,3.62c1.01-18.79,5.91-36.98,14.49-53.73.89-1.73.53-4.15-1.35-5.13l-3.55-1.85c-1.72-.9-4.17-.53-5.13,1.35-9.92,19.36-15.29,40.31-16.08,62.04-.06,1.79,1.24,3.01,2.75,3.62,9.81,3.95,20.02,6.02,30.6,6.15,4.83.06,4.83-7.44,0-7.5Z"/>
    </g>
    <g>
      <path class="cls-24" d="M247.28,120.92l-1.96-6.72,12.81-3.73c1.69-6.69,4.43-12.99,8.17-18.73,2.81-4.33,6.18-8.3,10-11.81l4.74,5.15c-3.39,3.12-6.37,6.64-8.87,10.48-3.65,5.62-6.24,11.82-7.68,18.45l-.44,2.04-16.78,4.88Z"/>
      <path class="cls-24" d="M250.89,119.93l-1.96-6.72-2.62,4.61,6.86-2c2.05-.6,5.02-.89,6.85-2.11s2.02-3.53,2.65-5.55c1.09-3.5,2.5-6.88,4.24-10.11,3.14-5.83,7.22-10.92,12.03-15.46h-5.3l4.74,5.15v-5.3c-9.4,8.93-15.21,20.01-17.95,32.62l2.62-2.62c-5.59,1.63-11.18,3.25-16.78,4.88-4.63,1.35-2.66,8.59,1.99,7.23,5.59-1.63,11.18-3.25,16.78-4.88,1.21-.35,2.34-1.35,2.62-2.62,2.48-11.43,7.48-21.2,16.02-29.31,1.51-1.44,1.34-3.84,0-5.3l-4.74-5.15c-1.4-1.52-3.88-1.35-5.3,0-9.33,8.82-15.83,19.8-19.13,32.2l2.62-2.62c-4.27,1.24-8.54,2.49-12.81,3.73-1.92.56-3.19,2.64-2.62,4.61l1.96,6.72c1.35,4.63,8.58,2.66,7.23-1.99Z"/>
    </g>
    <g>
      <path class="cls-24" d="M347.21,112.65l-6.99-.36c.19-3.73-.15-7.46-1.04-11.09-.81-3.34-2.07-6.56-3.73-9.57l-25.46-6.94,1.84-6.75,28.2,7.68.72,1.2c2.38,3.96,4.14,8.23,5.23,12.72,1.04,4.29,1.45,8.7,1.22,13.11Z"/>
      <path class="cls-24" d="M347.21,108.9l-6.99-.36,3.75,3.75c.19-6.71-.68-17.12-5.28-22.55-1.81-2.13-4.74-2.41-7.35-3.11-6.78-1.85-13.57-3.7-20.35-5.54l2.62,4.61,1.84-6.75-4.61,2.62c9.4,2.56,18.8,5.12,28.2,7.68l-2.24-1.72c4.7,7.8,6.95,16,6.67,25.13-.15,4.83,7.35,4.82,7.5,0,.3-9.47-1.84-18.71-6.53-26.97-1.95-3.42-3.92-3.82-7.45-4.78-8.05-2.19-16.09-4.39-24.14-6.58-1.95-.53-4.08.66-4.61,2.62l-1.84,6.75c-.53,1.95.66,4.08,2.62,4.61,8.49,2.31,16.97,4.62,25.46,6.94l-2.24-1.72c3.11,5.92,4.44,12.08,4.26,18.76-.06,2.1,1.77,3.65,3.75,3.75l6.99.36c4.82.25,4.81-7.25,0-7.5Z"/>
    </g>
    <g>
      <path class="cls-24" d="M288.51,195.12l-9.98-.58c.66-11.3,1.96-22.67,3.89-33.8.89-5.18,1.94-10.41,3.11-15.55l9.75,2.22c-1.13,4.97-2.14,10.03-3.01,15.04-1.86,10.76-3.12,21.75-3.76,32.67Z"/>
      <path class="cls-24" d="M288.51,191.37l-9.98-.58,3.75,3.75c1-16.3,3.29-32.42,6.86-48.35l-4.61,2.62,9.75,2.22-2.62-4.61c-3.59,16.04-5.89,32.31-6.9,48.71-.3,4.82,7.2,4.8,7.5,0,.97-15.75,3.18-31.32,6.63-46.72.43-1.91-.57-4.15-2.62-4.61l-9.75-2.22c-1.9-.43-4.15.57-4.61,2.62-3.72,16.57-6.09,33.39-7.13,50.35-.13,2.11,1.83,3.64,3.75,3.75l9.98.58c4.82.28,4.81-7.22,0-7.5Z"/>
    </g>
    <g>
      <path class="cls-24" d="M328.71,192.98c-3.31-8.17-6.57-16.46-9.7-24.63-2.97-7.76-5.93-15.67-8.77-23.51l9.4-3.41c2.82,7.78,5.75,15.64,8.71,23.35,3.11,8.11,6.35,16.34,9.63,24.46l-9.27,3.75Z"/>
      <path class="cls-24" d="M332.33,191.99c-6.44-15.94-12.6-31.99-18.47-48.14l-2.62,4.61,9.4-3.41-4.61-2.62c5.83,16.04,11.95,31.98,18.34,47.8l2.62-4.61-9.27,3.75c-4.42,1.79-2.49,9.05,1.99,7.23l9.27-3.75c1.71-.69,3.45-2.56,2.62-4.61-6.39-15.83-12.51-31.76-18.34-47.8-.65-1.79-2.58-3.36-4.61-2.62l-9.4,3.41c-1.79.65-3.36,2.59-2.62,4.61,5.88,16.16,12.03,32.2,18.47,48.14,1.78,4.42,9.04,2.49,7.23-1.99Z"/>
    </g>
    <g>
      <path class="cls-24" d="M294.96,70.93c-.33,0-.68-.05-1.02-.18l-.97-.36-.5-1s0,0,0,0h0c-.37-.82-.39-2.15.78-3.2.33-.29.74-.55,1.2-.76,2.15-.98,3.7-.15,4.28,1.11.38.84.4,2.17-.77,3.21-.33.29-.74.55-1.2.76-.48.22-1.11.43-1.79.43ZM294.17,68.61c.6,1.3,1.94,1.49,2.37,1.35.33-.21,1.07-1.35.48-2.65h0c-.59-1.29-1.94-1.49-2.38-1.35-.32.2-1.06,1.35-.48,2.64t0,0l.57-.26-.57.26Z"/>
      <g>
        <path class="cls-24" d="M294.96,67.18c.61.03-.04-.06-.31-.15-.23-.08-.46-.17-.68-.26l2.24,1.72c-.13-.27-.26-.54-.4-.8-.03-.06-.05-.15-.1-.2l.28.66c-.08-.33-.09-.34-.04-.04,0,.39-.06.51-.18.87-.1.29-.14.07.12-.14-.56.45.64-.31.13-.09.37-.16.38.15,0-.04-.11-.06-.73-.55-.52-.32s-.27-.53-.31-.62c.18.44-.03.09,0-.17-.02.13.25-.85.3-.73.13-.12.11-.1-.06.07-.21.21-.19.2.06-.03-.07.14-.52.3-.06.1-.12.05-1.02.2-.49.16-1.95.12-3.84,1.64-3.75,3.75.09,1.93,1.65,3.87,3.75,3.75,3.95-.23,7.94-3.04,7.72-7.37s-4.42-6.85-8.41-5.8-6.88,4.87-5.42,8.87c.44,1.21,1.08,2.58,2.23,3.25s2.63.99,3.88,1.06c1.96.11,3.84-1.8,3.75-3.75-.1-2.12-1.65-3.64-3.75-3.75Z"/>
        <path class="cls-24" d="M290.93,70.51c1.2,2.32,3.97,3.68,6.53,3.09,2.95-.68,4.18-4.72,3.17-7.28l-6.85,2.89h0c1.09,1.63,3.36,2.49,5.13,1.35s2.3-3.26,1.35-5.13c-1.24-2.43-4.45-3.99-7.06-2.88-3.1,1.31-4.07,6.33-1.68,8.72,1.28,1.28,3,1.28,4.54.59l.57-.26-3.79-6.48-.57.26c-1.79.81-2.37,3.55-1.35,5.13,1.19,1.85,3.21,2.22,5.13,1.35l.57-.26c1.79-.81,2.37-3.55,1.35-5.13-1.19-1.85-3.21-2.21-5.13-1.35l-.57.26,4.54.59h0c.32.55.64,1.1.96,1.65-.16-.42-.09-.83-.09,0,0,.26-.21.83-.02.26.15-.45-.41.82-.11.33-.5.82-1.69,1.45-2.64,1.47.52-.01-.96-.2-.53-.08.57.16-.25-.12-.36-.19.54.32-.6-.67-.16-.15l-.32-.44c.09.12.16.26.22.39l6.48-3.79h0c-1.04-1.57-2.9-2.29-4.68-1.54-1.57.66-2.86,2.68-2.17,4.42.16.42.09.83.09,0,0-.27.21-.83.02-.26-.15.45.41-.82.11-.33.5-.82,1.69-1.45,2.64-1.47-.52.01.97.2.53.08-.59-.16.3.1.36.19-.08-.04-.16-.08-.23-.13-.24-.16-.11-.06.39.29l.32.44c-.09-.12-.16-.25-.22-.39-.9-1.75-3.49-2.4-5.13-1.35-1.78,1.15-2.31,3.26-1.35,5.13Z"/>
      </g>
    </g>
    <g>
      <path class="cls-24" d="M296.49,75.92c2.02,1.31,4.74,1.72,7.02.91,2.71-.98,4.72-3.33,5.3-6.15.14-.66-.19-1.35-.87-1.54-.62-.17-1.4.21-1.54.87-.42,2.04-1.76,3.81-3.69,4.45-1.14.38-2.25.36-3.34.04-.22-.07-.44-.14-.65-.23-.15-.06.15.07-.06-.03-.09-.04-.18-.08-.26-.13-.22-.11-.43-.23-.63-.36-.57-.37-1.38-.11-1.71.45-.36.61-.12,1.34.45,1.71h0Z"/>
      <path class="cls-24" d="M294.6,79.16c3.72,2.15,8.31,2.51,12.1.31,3.08-1.79,5.87-5.43,5.85-9.12-.02-4.36-5.56-6.72-8.59-3.43-.96,1.04-.87,2.87-1.94,3.72-1.42,1.13-3.47-.75-5.2.4h3.79c-2.22-1.21-4.65-1.76-6.74.07-2.37,2.08-2.04,5.32-.02,7.46,3.33,3.51,8.62-1.8,5.3-5.3l.35.58v1.99l-1.36,1.37h-1.99c.21.06.47.2.68.31,1.13.62,2.66.75,3.79,0h0c-.96.12-1.93.25-2.89.37,2.66.92,5.67.75,8.08-.78.97-.61,1.79-1.43,2.47-2.35.37-.5.68-1,.96-1.55l.38-.9c.61-1.26.06-1.07-1.67.57l-1.89-.51-.49-.46-.51-1.89c.08,3.43-4.5,3.91-6.66,2.66-4.18-2.43-7.96,4.05-3.79,6.48Z"/>
    </g>
    <g>
      <path class="cls-24" d="M304.47,67.67c-.71,0-1.54-.15-2.2-.7l-.8-.66-.15-1.1h0s-.11-1.03-.11-1.03l.69-.9c.69-.85,1.77-1.12,2.55-1.2.78-.08,1.89-.03,2.74.67l.8.66.15,1.12c.07.68-.14,1.36-.58,1.91-.69.85-1.77,1.12-2.55,1.2-.17.02-.35.03-.54.03ZM303.18,65.02s0,0,0,0c.14,1.41,1.36,2.03,1.82,2.03.37-.09,1.44-.94,1.3-2.35h0s0,0,0,0c0,0,0,0,0,0h0c-.15-1.41-1.36-2.02-1.82-2.03-.37.09-1.44.94-1.3,2.35l.63-.06-.63.07Z"/>
      <g>
        <path class="cls-24" d="M304.47,63.92c-.45-.02-.26-.14-.12,0,.09.08.74.54.43.3-.23-.18-.45-.37-.67-.55l.96,1.65-.15-1.1c-.25-1.82-2.49-2.93-4.11-2.69-1.82.27-3.25,1.78-3.25,3.68h0c2.5,0,5,0,7.5,0l-.11-1.03-.51,1.89c.13-.17.41-.71.6-.78.31-.11-.29.35-.35.5-.27.11-.29.13-.05.06.29-.07.22-.07-.2-.01.09-.01.95-.09.49-.06-.27-.06-.19-.04.22.05l-.19-.07c-.39-.33-.49-.41-.3-.25l.27.22c.01.08.34.28.4.33l-.96-1.65c.03.23.06.45.09.68.15.94-.23-.33.05-.81.14-.24.26-.27.46-.44-.46.1-.45.12.03.06-.18.02-.36.03-.54.03-2.03.06-3.75,1.68-3.75,3.75s1.72,3.81,3.75,3.75c3.28-.09,6.55-1.85,7.28-5.29.24-1.16.15-2.49-.12-3.66-.29-1.25-1.21-1.94-2.16-2.67-4.3-3.3-12.53-.59-11.9,5.41.21,2.01,1.57,3.75,3.75,3.75,2.03,0,3.75-1.72,3.75-3.75h0c-2.46.33-4.91.66-7.37,1,.18,1.29.55,2.3,1.61,3.16,1.57,1.28,3.1,1.97,5.16,2.04s3.75-1.78,3.75-3.75c0-2.09-1.72-3.67-3.75-3.75Z"/>
        <path class="cls-24" d="M299.56,66.02c.55,2.47,2.73,4.83,5.43,4.79,3.03-.04,5.18-3.3,5.05-6.1-.09-1.96-1.66-3.84-3.75-3.75s-3.75,1.65-3.75,3.75h0c2.5,0,5,0,7.5,0,0-.07-.12-.94-.14-1.01-.51-1.8-2.28-2.93-4.11-2.69s-3.25,1.8-3.25,3.68h0c2.46-.33,4.91-.66,7.37-1-.41-2.67-3.18-5.09-5.93-4.72s-4.68,3.36-4.55,6.03c.09,1.87,1.65,3.96,3.75,3.75l.63-.06v-7.5l-.63.07c-1.94.2-3.85,1.58-3.75,3.75.08,1.86,1.66,3.97,3.75,3.75l.63-.07c1.94-.2,3.85-1.58,3.75-3.75-.08-1.87-1.66-3.95-3.75-3.75l-.63.06,3.75,3.75c-.04-.79-.28.71-.04.05-.04.12-.38.74-.12.33-.54.83-.39.44-.13.22l-.53.41c.47-.26.09-.23-1.16.11-1.26,0-1.66.05-1.2.19.28.09.09,0-.57-.24.5.27-.57-.55-.26-.22.28.29-.43-.77-.15-.19l-.2-.48c.05.16.08.32.1.49.28,1.84,2.46,2.91,4.11,2.69,1.82-.25,3.25-1.8,3.25-3.68h0c-2.46.33-4.91.66-7.37,1l-.13-.98c.15,1.95,1.62,3.85,3.75,3.75s3.75-1.65,3.75-3.75h0c-2.5,0-5,0-7.5,0,.04.79.28-.71.04-.05l.22-.51c-.16.25-.13.23.08-.06.44-.48.06-.09-.05,0,.74-.64,1.32-1.1,2.95-.7-.5-.13.82.41.43.18-.33-.2.66.66.26.2.34.48.43.6.27.35-.14-.24-.09-.11.14.38-.01,0-.11-.55-.1-.5-.43-1.92-2.75-3.22-4.61-2.62-2.01.65-3.08,2.56-2.62,4.61Z"/>
      </g>
    </g>
    <g>
      <path class="cls-24" d="M244.42,110.96c-.46-.28-4.45-2.63-6.58-1.04-.89.66-1.54,2.08-1.11,2.91.15.29.44.53,1.95.96.89.25,2.03.52,3.38.7-1.67,1.05-3.13,1.54-4.13,1.79-2.17.54-3.73.35-4.46,1.47-.3.46-.25.97-.28,1.87-.06,2.37.79,5.2,2.29,6.58,3.42,3.18,12.82,1.24,14.55-4.5,1.33-4.43-2.58-8.91-5.61-10.74Z"/>
      <path class="cls-24" d="M246.32,107.72c-3.84-2.26-9.44-3.43-12.32.92-1.31,1.97-1.61,4.76-.05,6.67s4.73,2.42,7.13,2.8l-.9-6.85c-2.56,1.48-5.74,1.22-8.16,2.8-2.56,1.67-2.77,4.63-2.44,7.4.7,6.04,4.78,10.11,10.94,10.01,5.1-.08,10.65-2.77,12.7-7.65,2.67-6.35-1.7-12.69-6.9-16.09-4.05-2.65-7.81,3.84-3.79,6.48,2.07,1.36,5.13,4.42,3.6,7.11-1.06,1.87-3.97,2.73-5.97,2.66-3.05-.1-2.4-2.01-3.21-4.35.13-1.05,0-1.05-.39,0-.68.82-.55,1.04.41.64.63.13,1.71-.31,2.29-.47,1.65-.46,3.22-1.22,4.7-2.08,2.56-1.48,2.42-6.34-.9-6.85-.9-.14-1.78-.3-2.67-.51-.34-.09-.67-.18-1.01-.27-1.26-.42-1.09.59.51,3.03.6.48,1.89.63,2.64,1.07,4.17,2.45,7.95-4.03,3.79-6.48Z"/>
    </g>
    <g>
      <path class="cls-24" d="M335.45,111.95c-.36.39-3.47,3.83-2.34,6.24.47,1.01,1.72,1.93,2.63,1.67.31-.09.61-.32,1.33-1.72.43-.82.92-1.88,1.37-3.17.69,1.85.88,3.37.92,4.41.1,2.23-.4,3.73.54,4.66.39.38.9.45,1.78.65,2.31.53,5.25.27,6.91-.92,3.8-2.72,3.79-12.31-1.49-15.16-4.08-2.2-9.24.74-11.65,3.34Z"/>
      <path class="cls-24" d="M332.8,109.29c-3.11,3.46-5.49,8.76-1.52,12.56,1.84,1.76,4.83,2.46,6.97.84,2.02-1.53,2.96-4.45,3.81-6.73h-7.23c.95,2.83.15,5.82,1.1,8.55,1.08,3.1,4.16,3.89,7.11,4.12,5.86.45,10.58-2.79,11.68-8.61.94-4.98-.41-10.75-4.6-13.89-5.54-4.15-12.92-1.28-17.32,3.16-3.4,3.43,1.9,8.74,5.3,5.3,1.81-1.83,5.6-4.46,7.96-2.11,1.43,1.42,1.66,4,1.36,5.88-.48,3.01-2.17,2.52-4.74,2.7l-.76-.17c.84,1.54,1.23,1.84,1.16.88.26-.55.07-1.76.04-2.41-.09-1.86-.47-3.64-1.06-5.4-1.22-3.64-5.95-3.46-7.23,0-.27.72-.77,1.55-.99,2.28l-.47.85c1.92,1.01,3.03.91,3.33-.29.55-.51.85-1.59,1.41-2.2,3.22-3.58-2.07-8.9-5.3-5.3Z"/>
    </g>
    <g>
      <path class="cls-24" d="M281.83,190.35c-6.94,2.45-12.68-3.53-17.43-1.07-2.31,1.19-4.6,4.49-4.65,13.68l28.3,2.19c.43-7.26.85-14.51,1.28-21.77-1.44,2.56-3.79,5.67-7.5,6.98Z"/>
      <path class="cls-24" d="M280.84,186.73c-6.55,1.79-12.96-4.46-19.24-.1-5.03,3.49-5.47,10.8-5.59,16.32-.05,2.14,1.76,3.6,3.75,3.75l28.3,2.19c2.11.16,3.64-1.85,3.75-3.75.43-7.26.85-14.51,1.28-21.77.22-3.82-5.17-4.96-6.99-1.89-1.56,2.62-3.31,4.41-6.15,5.63-4.42,1.9-.61,8.36,3.79,6.48,3.94-1.69,6.68-4.69,8.84-8.32l-6.99-1.89c-.43,7.26-.85,14.51-1.28,21.77l3.75-3.75-28.3-2.19,3.75,3.75c.07-3.01-.32-10.4,4.09-10.51,2.4-.06,5.2,1.54,7.58,1.95,2.63.45,5.08.28,7.66-.43,4.65-1.27,2.68-8.51-1.99-7.23Z"/>
    </g>
    <g>
      <path class="cls-24" d="M328.41,183.73c-5.03,5.37-12.88,2.72-15.96,7.09-1.5,2.12-2.01,6.11,2.18,14.28,8.71-3.7,17.41-7.41,26.12-11.11-2.97-6.63-5.94-13.27-8.9-19.9-.1,2.94-.75,6.78-3.43,9.65Z"/>
      <path class="cls-24" d="M325.76,181.08c-4.85,4.53-13.14,1.93-16.85,8.33-3.2,5.51,0,12.5,2.49,17.58.97,1.98,3.38,2.09,5.13,1.35,8.71-3.7,17.41-7.41,26.12-11.11,2-.85,2.08-3.48,1.35-5.13-2.97-6.63-5.94-13.27-8.9-19.9-1.64-3.66-6.8-1.46-6.99,1.89-.15,2.56-.67,4.96-2.34,6.99-3.03,3.71,2.24,9.04,5.3,5.3s4.26-7.57,4.53-12.3l-6.99,1.89c2.97,6.63,5.94,13.27,8.9,19.9l1.35-5.13c-8.71,3.7-17.41,7.41-26.12,11.11l5.13,1.35c-1.65-3.36-5.28-9.75-.03-11.35s9.19-1.7,13.23-5.47c3.54-3.3-1.78-8.59-5.3-5.3Z"/>
    </g>
    <g>
      <g>
        <g>
          <circle class="cls-24" cx="255.22" cy="61.33" r="24.57"/>
          <path class="cls-24" d="M276.04,61.33c-.32,11.35-9.23,20.82-20.82,20.82s-20.78-9.47-20.82-20.82,9.5-20.82,20.82-20.82,20.5,9.47,20.82,20.82c.13,4.82,7.63,4.84,7.5,0-.33-11.89-7.39-22.47-18.69-26.62s-23.9-.53-31.39,8.53c-16.53,19.99,1.39,50.5,26.88,45.93,13.54-2.43,22.83-14.36,23.2-27.84.13-4.83-7.37-4.82-7.5,0Z"/>
        </g>
        <g>
          <path class="cls-24" d="M255.22,87.9c-14.65,0-26.57-11.92-26.57-26.57s11.92-26.57,26.57-26.57,26.57,11.92,26.57,26.57-11.92,26.57-26.57,26.57ZM255.22,38.76c-12.45,0-22.57,10.12-22.57,22.57s10.12,22.57,22.57,22.57,22.57-10.12,22.57-22.57-10.12-22.57-22.57-22.57Z"/>
          <g>
            <path class="cls-24" d="M255.22,84.15c-12.44-.32-22.79-10.15-22.82-22.82s10.42-22.85,22.82-22.82,22.82,10.37,22.82,22.82-10.4,22.51-22.82,22.82c-4.82.12-4.84,7.62,0,7.5,12.55-.32,23.79-7.74,28.33-19.59s.92-25.73-8.79-33.87c-9.81-8.23-24.2-9.5-35.2-2.81-10.78,6.56-16.38,19.27-14.1,31.65,2.64,14.36,15.45,24.27,29.76,24.63,4.83.12,4.83-7.38,0-7.5Z"/>
            <path class="cls-24" d="M255.22,35.01c-10.84.33-20.54,6.62-24.53,16.85-4.08,10.46-.83,22.67,7.84,29.78,18.51,15.16,46.41-1.24,42.61-24.69-2.07-12.75-13.28-21.56-25.92-21.94-4.83-.15-4.82,7.36,0,7.5,10.23.31,18.82,8.34,18.82,18.82s-8.57,18.78-18.82,18.82-18.45-8.18-18.8-18.13c-.38-10.75,8.29-19.19,18.8-19.51,4.82-.14,4.84-7.65,0-7.5Z"/>
          </g>
        </g>
      </g>
      <g>
        <g>
          <path class="cls-24" d="M242.11,83.19c-3.83,7.36-8.07,17.14-11.13,29.09-2.83,11.05-3.87,20.92-4.16,28.8,6.24,2.51,17.7,6.14,32.21,5.2,19.28-1.26,32.81-9.88,38.44-13.95-2.34-7.36-5.53-15.73-9.94-24.64-5.34-10.78-11.15-19.72-16.48-26.87"/>
          <path class="cls-24" d="M238.87,81.3c-9.57,18.58-14.94,38.9-15.8,59.78-.07,1.78,1.24,3.02,2.75,3.62,24.33,9.62,52.29,6.1,73.54-9.14,1.32-.94,2.26-2.56,1.72-4.23-6.07-18.81-15.05-36.5-26.8-52.4-2.84-3.84-9.35-.1-6.48,3.79,11.37,15.39,20.17,32.4,26.04,50.61l1.72-4.23c-19.8,14.19-45.08,17.35-67.76,8.38l2.75,3.62c.8-19.53,5.82-38.61,14.78-56,2.21-4.28-4.26-8.08-6.48-3.79h0Z"/>
        </g>
        <g>
          <path class="cls-24" d="M254.37,148.42c-9.62,0-19.31-1.87-28.3-5.49l-1.3-.52.05-1.4c.36-9.85,1.78-19.68,4.22-29.22,2.62-10.22,6.42-20.16,11.3-29.52l3.55,1.85c-4.74,9.09-8.43,18.74-10.97,28.67-2.25,8.81-3.61,17.87-4.04,26.96,9.57,3.63,19.93,5.2,30.02,4.54,16.1-1.05,28.42-7.33,36.22-12.74-2.57-7.86-5.72-15.58-9.38-22.97-4.6-9.29-10.08-18.23-16.29-26.56l3.21-2.39c6.35,8.52,11.96,17.66,16.66,27.17,3.96,8.01,7.35,16.39,10.06,24.92l.44,1.38-1.17.85c-8.14,5.89-21.6,13.16-39.49,14.33-1.59.1-3.19.16-4.79.16Z"/>
          <path class="cls-24" d="M254.37,144.67c-9.95-.12-19.4-2.17-28.61-5.88l2.75,3.62c.74-20.38,5.75-40.09,15.05-58.25l-5.13,1.35,3.55,1.85-1.35-5.13c-9.2,17.96-14.43,37.37-15.52,57.51-.09,1.74,1.25,3.07,2.75,3.62,23.14,8.45,48.78,5.31,69.13-8.58,1.32-.9,2.27-2.6,1.72-4.23-6.02-18.1-14.73-35.06-26.05-50.42l-1.35,5.13,3.21-2.39-5.13-1.35c11.8,16.01,20.77,33.63,26.78,52.58l1.72-4.23c-12.87,9.32-27.57,14.65-43.55,14.82-4.82.05-4.84,7.55,0,7.5,17.22-.19,33.44-5.78,47.34-15.84,1.32-.95,2.26-2.55,1.72-4.23-6.21-19.55-15.36-37.85-27.54-54.37-1.1-1.49-3.37-2.66-5.13-1.35l-3.21,2.39c-1.49,1.11-2.65,3.36-1.35,5.13,10.94,14.85,19.47,31.13,25.29,48.63l1.72-4.23c-18.85,12.86-41.91,15.65-63.35,7.82l2.75,3.62c1.01-18.79,5.91-36.98,14.49-53.73.89-1.73.53-4.15-1.35-5.13l-3.55-1.85c-1.72-.9-4.17-.53-5.13,1.35-9.92,19.36-15.29,40.31-16.08,62.04-.06,1.79,1.24,3.01,2.75,3.62,9.81,3.95,20.02,6.02,30.6,6.15,4.83.06,4.83-7.44,0-7.5Z"/>
        </g>
      </g>
      <g>
        <path class="cls-24" d="M209.15,120.89l-1.96-6.72,12.81-3.73c1.69-6.69,4.43-12.99,8.17-18.73,2.82-4.33,6.18-8.3,10-11.81l4.74,5.15c-3.39,3.12-6.37,6.64-8.87,10.48-3.65,5.62-6.24,11.82-7.68,18.45l-.44,2.04-16.78,4.88Z"/>
        <path class="cls-24" d="M212.76,119.89l-1.96-6.72-2.62,4.61,6.86-2c2.05-.6,5.02-.89,6.85-2.11s2.02-3.53,2.65-5.55c1.09-3.5,2.5-6.88,4.24-10.11,3.14-5.83,7.22-10.92,12.03-15.46h-5.3l4.74,5.15v-5.3c-9.4,8.93-15.21,20.01-17.95,32.62l2.62-2.62c-5.59,1.63-11.18,3.25-16.78,4.88-4.63,1.35-2.66,8.59,1.99,7.23,5.59-1.63,11.18-3.25,16.78-4.88,1.21-.35,2.34-1.35,2.62-2.62,2.48-11.43,7.48-21.2,16.02-29.31,1.51-1.44,1.34-3.84,0-5.3l-4.74-5.15c-1.4-1.52-3.88-1.35-5.3,0-9.33,8.82-15.83,19.8-19.13,32.2l2.62-2.62c-4.27,1.24-8.54,2.49-12.81,3.73-1.92.56-3.19,2.64-2.62,4.61l1.96,6.72c1.35,4.63,8.58,2.66,7.23-1.99Z"/>
      </g>
      <g>
        <path class="cls-24" d="M309.09,112.61l-6.99-.36c.19-3.73-.15-7.46-1.04-11.09-.81-3.34-2.07-6.56-3.74-9.57l-25.45-6.94,1.84-6.75,28.2,7.68.72,1.2c2.38,3.96,4.14,8.24,5.23,12.72,1.04,4.29,1.45,8.7,1.22,13.11Z"/>
        <path class="cls-24" d="M309.09,108.86l-6.99-.36,3.75,3.75c.19-6.71-.68-17.12-5.28-22.55-1.81-2.13-4.74-2.41-7.35-3.11-6.78-1.85-13.56-3.7-20.35-5.54l2.62,4.61,1.84-6.75-4.61,2.62c9.4,2.56,18.8,5.12,28.2,7.68l-2.24-1.72c4.69,7.81,6.95,16,6.66,25.13-.15,4.83,7.35,4.82,7.5,0,.3-9.47-1.84-18.71-6.53-26.97-1.95-3.42-3.92-3.82-7.45-4.78-8.05-2.19-16.09-4.39-24.14-6.58-1.95-.53-4.08.66-4.61,2.62l-1.84,6.75c-.53,1.95.66,4.08,2.62,4.61,8.48,2.31,16.97,4.62,25.45,6.94l-2.24-1.72c3.11,5.92,4.45,12.08,4.26,18.76-.06,2.1,1.77,3.65,3.75,3.75l6.99.36c4.82.25,4.81-7.25,0-7.5Z"/>
      </g>
      <g>
        <path class="cls-24" d="M250.38,195.08l-9.98-.58c.66-11.3,1.96-22.67,3.89-33.8.89-5.17,1.94-10.41,3.11-15.55l9.75,2.22c-1.13,4.98-2.14,10.03-3.01,15.04-1.86,10.76-3.12,21.75-3.76,32.68Z"/>
        <path class="cls-24" d="M250.38,191.33l-9.98-.58,3.75,3.75c1-16.3,3.29-32.42,6.86-48.35l-4.61,2.62,9.75,2.22-2.62-4.61c-3.59,16.04-5.89,32.31-6.9,48.71-.3,4.82,7.2,4.8,7.5,0,.97-15.75,3.18-31.32,6.63-46.72.43-1.91-.57-4.15-2.62-4.61l-9.75-2.22c-1.9-.43-4.15.57-4.61,2.62-3.72,16.57-6.09,33.39-7.13,50.35-.13,2.11,1.83,3.64,3.75,3.75l9.98.58c4.82.28,4.81-7.22,0-7.5Z"/>
      </g>
      <g>
        <path class="cls-24" d="M290.59,192.94c-3.3-8.17-6.57-16.45-9.7-24.63-2.97-7.76-5.93-15.67-8.77-23.51l9.4-3.41c2.82,7.78,5.75,15.64,8.71,23.35,3.11,8.12,6.35,16.35,9.63,24.46l-9.27,3.75Z"/>
        <path class="cls-24" d="M294.2,191.95c-6.44-15.94-12.6-31.99-18.47-48.14l-2.62,4.61,9.4-3.41-4.61-2.62c5.83,16.04,11.95,31.98,18.34,47.8l2.62-4.61-9.27,3.75c-4.42,1.79-2.49,9.05,1.99,7.23l9.27-3.75c1.71-.69,3.45-2.56,2.62-4.61-6.39-15.83-12.51-31.76-18.34-47.8-.65-1.79-2.58-3.36-4.61-2.62l-9.4,3.41c-1.79.65-3.36,2.59-2.62,4.61,5.88,16.16,12.03,32.2,18.47,48.14,1.78,4.42,9.04,2.49,7.23-1.99Z"/>
      </g>
      <g>
        <path class="cls-24" d="M206.3,110.92c-.46-.28-4.45-2.63-6.58-1.04-.89.66-1.54,2.08-1.11,2.91.15.29.44.53,1.95.96.89.25,2.03.52,3.38.7-1.67,1.05-3.13,1.54-4.13,1.79-2.17.54-3.73.35-4.46,1.47-.3.46-.25.97-.28,1.87-.06,2.37.79,5.2,2.29,6.58,3.42,3.18,12.82,1.24,14.55-4.5,1.33-4.43-2.58-8.91-5.61-10.74Z"/>
        <path class="cls-24" d="M208.19,107.68c-3.84-2.26-9.44-3.43-12.32.92-1.31,1.97-1.61,4.76-.05,6.67s4.73,2.42,7.13,2.8l-.9-6.85c-2.56,1.48-5.74,1.22-8.16,2.8-2.56,1.67-2.77,4.63-2.44,7.4.7,6.04,4.78,10.11,10.94,10.01,5.1-.08,10.65-2.77,12.7-7.65,2.67-6.35-1.7-12.69-6.9-16.09-4.05-2.65-7.81,3.84-3.79,6.48,2.07,1.36,5.13,4.42,3.6,7.11-1.06,1.87-3.97,2.73-5.97,2.66-3.05-.1-2.4-2.01-3.21-4.35.13-1.05,0-1.05-.39,0-.68.82-.55,1.04.41.64.63.13,1.71-.31,2.29-.47,1.65-.46,3.22-1.22,4.7-2.08,2.56-1.48,2.42-6.34-.9-6.85-.9-.14-1.78-.3-2.67-.51-.34-.09-.67-.18-1.01-.27-1.26-.42-1.09.59.51,3.03.6.48,1.89.63,2.64,1.07,4.17,2.45,7.95-4.03,3.79-6.48Z"/>
      </g>
      <g>
        <path class="cls-24" d="M297.32,111.91c-.36.39-3.47,3.83-2.34,6.24.47,1.01,1.72,1.93,2.63,1.67.31-.09.61-.32,1.33-1.72.43-.82.92-1.88,1.37-3.17.69,1.85.88,3.37.92,4.41.1,2.23-.4,3.73.54,4.66.39.38.9.45,1.78.65,2.31.53,5.25.27,6.91-.92,3.8-2.72,3.79-12.31-1.49-15.16-4.08-2.2-9.24.74-11.65,3.34Z"/>
        <path class="cls-24" d="M294.67,109.26c-3.11,3.46-5.49,8.76-1.52,12.56,1.84,1.76,4.83,2.46,6.97.84,2.02-1.53,2.96-4.45,3.81-6.73h-7.23c.95,2.83.15,5.82,1.1,8.55,1.08,3.1,4.16,3.89,7.11,4.12,5.86.45,10.58-2.79,11.68-8.61.94-4.98-.41-10.75-4.6-13.89-5.54-4.15-12.92-1.28-17.32,3.16-3.4,3.43,1.9,8.74,5.3,5.3,1.81-1.83,5.6-4.46,7.96-2.11,1.43,1.42,1.66,4,1.36,5.88-.48,3.01-2.17,2.52-4.74,2.7l-.76-.17c.84,1.54,1.23,1.84,1.16.88.26-.55.07-1.76.04-2.41-.09-1.86-.47-3.64-1.06-5.4-1.22-3.64-5.95-3.46-7.23,0-.27.72-.77,1.55-.99,2.28l-.47.85c1.92,1.01,3.03.91,3.33-.29.55-.51.85-1.59,1.41-2.2,3.22-3.58-2.07-8.9-5.3-5.3Z"/>
      </g>
      <g>
        <path class="cls-24" d="M243.71,190.31c-6.94,2.45-12.68-3.53-17.43-1.07-2.31,1.19-4.6,4.49-4.65,13.68l28.3,2.19c.43-7.26.85-14.51,1.28-21.77-1.44,2.56-3.79,5.67-7.5,6.98Z"/>
        <path class="cls-24" d="M242.71,186.69c-6.55,1.79-12.96-4.46-19.24-.1-5.03,3.49-5.47,10.8-5.59,16.32-.05,2.14,1.76,3.6,3.75,3.75l28.3,2.19c2.11.16,3.64-1.85,3.75-3.75.43-7.26.85-14.51,1.28-21.77.22-3.82-5.17-4.96-6.99-1.89-1.56,2.62-3.31,4.41-6.15,5.63-4.42,1.9-.61,8.36,3.79,6.48,3.94-1.69,6.68-4.69,8.84-8.32l-6.99-1.89c-.43,7.26-.85,14.51-1.28,21.77l3.75-3.75-28.3-2.19,3.75,3.75c.07-3.01-.32-10.4,4.09-10.51,2.4-.06,5.2,1.54,7.58,1.95,2.63.45,5.08.28,7.66-.43,4.65-1.27,2.68-8.51-1.99-7.23Z"/>
      </g>
      <g>
        <path class="cls-24" d="M290.28,183.69c-5.03,5.37-12.88,2.72-15.96,7.09-1.5,2.12-2.01,6.11,2.18,14.28,8.71-3.7,17.41-7.41,26.12-11.11-2.97-6.63-5.94-13.27-8.9-19.9-.1,2.94-.75,6.78-3.43,9.65Z"/>
        <path class="cls-24" d="M287.63,181.04c-4.85,4.53-13.14,1.93-16.85,8.33-3.2,5.51,0,12.5,2.49,17.58.97,1.98,3.38,2.09,5.13,1.35,8.71-3.7,17.41-7.41,26.12-11.11,2-.85,2.08-3.48,1.35-5.13-2.97-6.63-5.94-13.27-8.9-19.9-1.64-3.66-6.8-1.46-6.99,1.89-.15,2.56-.67,4.96-2.34,6.99-3.03,3.71,2.24,9.04,5.3,5.3s4.26-7.57,4.53-12.3l-6.99,1.89c2.97,6.63,5.94,13.27,8.9,19.9l1.35-5.13c-8.71,3.7-17.41,7.41-26.12,11.11l5.13,1.35c-1.65-3.36-5.28-9.75-.03-11.35s9.19-1.7,13.23-5.47c3.54-3.3-1.78-8.59-5.3-5.3Z"/>
      </g>
    </g>
    <g>
      <path class="cls-24" d="M253.38,87.9c-14.65,0-26.57-11.92-26.57-26.57s11.92-26.57,26.57-26.57,26.57,11.92,26.57,26.57-11.92,26.57-26.57,26.57ZM253.38,38.76c-12.45,0-22.57,10.12-22.57,22.57s10.12,22.57,22.57,22.57,22.57-10.12,22.57-22.57-10.12-22.57-22.57-22.57Z"/>
      <g>
        <path class="cls-24" d="M253.38,84.15c-12.44-.32-22.79-10.15-22.82-22.82s10.41-22.85,22.82-22.82,22.82,10.37,22.82,22.82-10.4,22.51-22.82,22.82c-4.82.12-4.84,7.62,0,7.5,12.55-.32,23.79-7.74,28.33-19.59s.92-25.73-8.79-33.87-24.2-9.5-35.2-2.81c-10.78,6.56-16.38,19.27-14.1,31.65,2.64,14.36,15.45,24.27,29.76,24.63,4.83.12,4.83-7.38,0-7.5Z"/>
        <path class="cls-24" d="M253.38,35.01c-10.84.33-20.54,6.62-24.53,16.85s-.83,22.67,7.84,29.78c18.51,15.16,46.41-1.24,42.61-24.69-2.07-12.75-13.28-21.56-25.92-21.94-4.83-.15-4.82,7.36,0,7.5,10.24.31,18.82,8.34,18.82,18.82s-8.58,18.78-18.82,18.82-18.45-8.18-18.8-18.13c-.38-10.75,8.29-19.19,18.8-19.51,4.82-.14,4.84-7.65,0-7.5Z"/>
      </g>
    </g>
    <g>
      <path class="cls-24" d="M252.54,148.42c-9.61,0-19.31-1.87-28.3-5.49l-1.3-.52.05-1.4c.36-9.84,1.77-19.67,4.22-29.22,2.62-10.22,6.42-20.16,11.3-29.52l3.55,1.85c-4.74,9.09-8.43,18.74-10.97,28.66-2.25,8.81-3.61,17.87-4.04,26.96,9.57,3.63,19.93,5.2,30.02,4.54,16.1-1.05,28.42-7.33,36.22-12.74-2.57-7.86-5.72-15.58-9.38-22.97-4.6-9.3-10.08-18.23-16.29-26.56l3.21-2.39c6.35,8.52,11.96,17.66,16.66,27.17,3.97,8.01,7.35,16.39,10.06,24.92l.44,1.38-1.17.85c-8.14,5.89-21.6,13.16-39.49,14.33-1.59.1-3.19.16-4.79.16Z"/>
      <path class="cls-24" d="M252.54,144.67c-9.94-.12-19.4-2.17-28.61-5.88l2.75,3.62c.72-20.38,5.75-40.09,15.05-58.25l-5.13,1.35,3.55,1.85-1.35-5.13c-9.2,17.96-14.44,37.37-15.52,57.51-.09,1.74,1.25,3.07,2.75,3.62,23.14,8.45,48.78,5.31,69.13-8.58,1.32-.9,2.27-2.6,1.72-4.23-6.02-18.1-14.73-35.06-26.05-50.42l-1.35,5.13,3.21-2.39-5.13-1.35c11.8,16,20.77,33.63,26.78,52.58l1.72-4.23c-12.87,9.32-27.57,14.65-43.55,14.82-4.82.05-4.84,7.55,0,7.5,17.21-.19,33.44-5.78,47.33-15.84,1.32-.95,2.26-2.55,1.72-4.23-6.21-19.55-15.36-37.85-27.54-54.37-1.1-1.49-3.37-2.66-5.13-1.35l-3.21,2.39c-1.49,1.11-2.65,3.36-1.35,5.13,10.94,14.84,19.47,31.13,25.29,48.63l1.72-4.23c-18.85,12.86-41.91,15.65-63.35,7.82l2.75,3.62c1.01-18.79,5.91-36.98,14.49-53.73.89-1.73.53-4.15-1.35-5.13l-3.55-1.85c-1.72-.9-4.17-.53-5.13,1.35-9.91,19.35-15.3,40.31-16.08,62.04-.06,1.79,1.24,3.01,2.75,3.62,9.81,3.95,20.02,6.02,30.6,6.15,4.83.06,4.83-7.44,0-7.5Z"/>
    </g>
    <g>
      <path class="cls-24" d="M207.31,120.89l-1.96-6.72,12.81-3.73c1.69-6.69,4.43-12.99,8.17-18.73,2.81-4.32,6.18-8.3,9.99-11.81l4.74,5.15c-3.39,3.12-6.37,6.64-8.87,10.48-3.65,5.61-6.24,11.82-7.68,18.45l-.44,2.04-16.78,4.88Z"/>
      <path class="cls-24" d="M210.93,119.89l-1.96-6.72-2.62,4.61,6.86-2c2.05-.6,5.02-.89,6.85-2.11s2.02-3.53,2.65-5.55c1.09-3.5,2.5-6.88,4.24-10.12,3.14-5.83,7.22-10.92,12.02-15.46h-5.3l4.74,5.15v-5.3c-9.4,8.93-15.21,20.01-17.95,32.62l2.62-2.62c-5.59,1.63-11.18,3.25-16.78,4.88-4.63,1.35-2.66,8.59,1.99,7.23,5.59-1.63,11.18-3.25,16.78-4.88,1.21-.35,2.34-1.35,2.62-2.62,2.49-11.44,7.48-21.2,16.02-29.31,1.51-1.44,1.34-3.84,0-5.3l-4.74-5.15c-1.4-1.52-3.88-1.35-5.3,0-9.33,8.83-15.82,19.79-19.13,32.2l2.62-2.62-12.81,3.73c-1.92.56-3.19,2.64-2.62,4.61l1.96,6.72c1.35,4.63,8.58,2.66,7.23-1.99Z"/>
    </g>
    <g>
      <path class="cls-24" d="M307.25,112.61l-6.99-.36c.19-3.73-.15-7.46-1.04-11.09-.81-3.35-2.07-6.56-3.74-9.57l-25.45-6.94,1.84-6.75,28.2,7.68.72,1.2c2.38,3.95,4.14,8.23,5.23,12.72,1.04,4.29,1.45,8.7,1.22,13.11Z"/>
      <path class="cls-24" d="M307.25,108.86l-6.99-.36,3.75,3.75c.19-6.71-.68-17.12-5.28-22.55-1.81-2.13-4.74-2.41-7.35-3.11-6.78-1.85-13.56-3.7-20.35-5.54l2.62,4.61,1.84-6.75-4.61,2.62c9.4,2.56,18.8,5.12,28.2,7.68l-2.24-1.72c4.7,7.8,6.95,16,6.67,25.13-.15,4.83,7.35,4.82,7.5,0,.3-9.47-1.84-18.72-6.54-26.97-1.95-3.42-3.92-3.82-7.45-4.78-8.05-2.19-16.09-4.39-24.14-6.58-1.95-.53-4.08.66-4.61,2.62l-1.84,6.75c-.53,1.95.66,4.08,2.62,4.61,8.48,2.31,16.97,4.62,25.45,6.94l-2.24-1.72c3.11,5.92,4.45,12.08,4.26,18.76-.06,2.1,1.77,3.65,3.75,3.75l6.99.36c4.82.25,4.81-7.25,0-7.5Z"/>
    </g>
    <g>
      <path class="cls-24" d="M248.55,195.08l-9.98-.58c.66-11.29,1.96-22.66,3.89-33.8.9-5.19,1.94-10.43,3.11-15.55l9.75,2.22c-1.13,4.96-2.14,10.02-3.01,15.04-1.86,10.76-3.12,21.76-3.76,32.67Z"/>
      <path class="cls-24" d="M248.55,191.33l-9.98-.58,3.75,3.75c1-16.3,3.29-32.42,6.86-48.35l-4.61,2.62,9.75,2.22-2.62-4.61c-3.59,16.04-5.89,32.31-6.9,48.71-.3,4.82,7.2,4.8,7.5,0,.97-15.75,3.18-31.32,6.63-46.72.43-1.91-.57-4.15-2.62-4.61l-9.75-2.22c-1.9-.43-4.15.57-4.61,2.62-3.72,16.57-6.09,33.39-7.13,50.35-.13,2.11,1.83,3.64,3.75,3.75l9.98.58c4.82.28,4.81-7.22,0-7.5Z"/>
    </g>
    <g>
      <path class="cls-24" d="M288.75,192.94c-3.31-8.17-6.57-16.46-9.7-24.63-2.97-7.76-5.93-15.67-8.77-23.51l9.4-3.41c2.82,7.78,5.75,15.64,8.71,23.35,3.11,8.11,6.35,16.34,9.63,24.46l-9.27,3.75Z"/>
      <path class="cls-24" d="M292.37,191.95c-6.44-15.94-12.6-31.99-18.47-48.14l-2.62,4.61,9.4-3.41-4.61-2.62c5.83,16.04,11.95,31.98,18.34,47.8l2.62-4.61-9.27,3.75c-4.42,1.79-2.49,9.05,1.99,7.23l9.27-3.75c1.71-.69,3.45-2.56,2.62-4.61-6.39-15.83-12.51-31.76-18.34-47.8-.65-1.79-2.58-3.36-4.61-2.62l-9.4,3.41c-1.79.65-3.36,2.59-2.62,4.61,5.88,16.16,12.03,32.2,18.47,48.14,1.78,4.42,9.04,2.49,7.23-1.99Z"/>
    </g>
    <g>
      <path class="cls-24" d="M255,70.9c-.34,0-.68-.05-1.02-.18l-.97-.36-.93-1.95.37-1.07c.38-1.03,1.32-1.63,2.04-1.95.32-.14.81-.33,1.36-.4,1.56-.2,2.55.7,2.92,1.52.57,1.26.18,2.98-1.97,3.96-.48.22-1.11.43-1.79.43ZM254.21,68.57c.59,1.29,1.94,1.49,2.38,1.35.32-.2,1.06-1.35.47-2.65h0c-.59-1.3-1.94-1.49-2.38-1.35-.32.2-1.06,1.35-.48,2.64t0,0l.57-.26-.57.26Z"/>
      <g>
        <path class="cls-24" d="M255,67.15c.75.04-.06-.06-.28-.14-.24-.09-.48-.18-.72-.27l2.24,1.72-.93-1.95.38,2.89c.07-.22.15-.43.22-.65.21-.64-.06-.05-.2.25.1-.23.45-.3.09-.09.18-.11.37-.22.57-.3-.53.22-.13,0,.06.05-.16-.05-.39-.02-.58-.08-.1-.03-.55-.46-.29-.2s-.19-.34-.24-.43c-.3-.54.06.43-.04-.2s-.15.39-.02-.2c.02-.1.28-.79.09-.46-.24.42.17-.26.18-.2-.02-.13-.18.12-.19.13.25-.11-.48.13-.34.12-2.02.15-3.75,1.62-3.75,3.75,0,1.92,1.72,3.9,3.75,3.75,4.27-.31,8.65-3.64,7.59-8.38s-5.83-5.96-9.74-4.23c-3.09,1.37-5.46,5.1-3.96,8.39.34.75.66,1.55,1.16,2.2,1.06,1.37,3.26,1.93,4.94,2.02,2.02.11,3.75-1.8,3.75-3.75,0-2.12-1.72-3.64-3.75-3.75Z"/>
        <path class="cls-24" d="M250.97,70.47c1.18,2.33,3.98,3.68,6.53,3.09,2.95-.68,4.18-4.72,3.17-7.28l-6.85,2.89h0c1.09,1.63,3.36,2.49,5.13,1.35s2.3-3.26,1.35-5.13c-1.13-2.22-4.11-3.89-6.61-3.07-3.4,1.11-4.69,6.35-2.13,8.91,1.28,1.28,3,1.28,4.54.59l.57-.26-3.79-6.48-.57.26c-1.79.81-2.37,3.55-1.35,5.13,1.19,1.85,3.21,2.22,5.13,1.35l.57-.26c1.79-.81,2.37-3.55,1.35-5.13-1.19-1.85-3.21-2.21-5.13-1.35l-.57.26,4.54.59h0c.32.55.64,1.1.96,1.65-.08-.2-.11-.86-.13-.3,0,.16-.14,1.07.03.56-.03.08-.39.77-.14.37-.5.81-.52.58-.25.37l-1.65.96c.48-.12-1.14.08-.59.1-.77-.13-.96-.15-.58-.07.25.08.2.05-.14-.08-.34-.16-.39-.17-.14-.04-.47-.4-.6-.5-.38-.3.2.19.12.07-.25-.38.09.12.16.26.22.39l6.48-3.79h0c-1.04-1.57-2.9-2.29-4.68-1.54-1.57.66-2.86,2.68-2.17,4.42.16.42.09.83.09,0,0-.27.21-.83.02-.26-.15.45.41-.82.11-.33.5-.82,1.69-1.45,2.64-1.47-.52.01.96.2.53.08-.57-.16.25.12.36.19-.54-.32.59.67.16.15l.32.44c-.09-.12-.16-.25-.22-.39-.89-1.75-3.5-2.4-5.13-1.35-1.79,1.15-2.3,3.26-1.35,5.13Z"/>
      </g>
    </g>
    <g>
      <path class="cls-24" d="M256.53,75.88c2.02,1.31,4.74,1.72,7.02.91,2.71-.98,4.72-3.33,5.3-6.15.14-.66-.19-1.35-.87-1.54-.62-.17-1.4.21-1.54.87-.42,2.04-1.76,3.81-3.69,4.45-1.14.38-2.25.36-3.34.04-.22-.07-.44-.14-.65-.23-.15-.06.15.07-.06-.03-.09-.04-.18-.08-.26-.13-.22-.11-.43-.23-.63-.36-.57-.37-1.38-.11-1.71.45-.36.61-.12,1.34.45,1.71h0Z"/>
      <path class="cls-24" d="M254.64,79.12c3.72,2.15,8.31,2.51,12.1.31,3.08-1.79,5.87-5.43,5.85-9.12-.02-4.36-5.56-6.72-8.59-3.43-.96,1.04-.87,2.87-1.94,3.72-1.42,1.13-3.47-.75-5.2.4h3.79c-2.22-1.21-4.65-1.76-6.74.07-2.37,2.08-2.04,5.32-.02,7.46,3.33,3.51,8.62-1.8,5.3-5.3l.35.58v1.99l-1.36,1.37h-1.99c.21.06.47.2.68.31,1.13.62,2.66.75,3.79,0h0c-.96.12-1.93.25-2.89.37,2.66.92,5.67.75,8.08-.78.97-.61,1.79-1.43,2.47-2.35.37-.5.68-1,.96-1.55l.38-.9c.61-1.26.06-1.07-1.67.57l-1.89-.51-.49-.46-.51-1.89c.08,3.43-4.5,3.91-6.66,2.66-4.18-2.43-7.96,4.05-3.79,6.48Z"/>
    </g>
    <g>
      <path class="cls-24" d="M264.5,67.63c-2,0-3.02-1.19-3.15-2.45h0c-.13-1.39.78-2.89,3.14-3.13,2.36-.24,3.55,1.05,3.7,2.42.14,1.39-.78,2.89-3.13,3.13-.19.02-.38.03-.55.03ZM264.51,62.63c-.37.09-1.44.94-1.3,2.35.15,1.43,1.36,2.04,1.82,2.05.37-.09,1.43-.93,1.3-2.35l-2.49.24,2.49-.26c-.15-1.41-1.36-2.02-1.82-2.03Z"/>
      <g>
        <path class="cls-24" d="M264.5,63.88c.33.02-.29-.18-.11,0,.17.17.4.32.57.51.25.28.16.45.02-.07-.11-.42.06.79.01,1.06.1-.55-.09.07-.23.3-.34.54.52-.53-.19.16-.32.32-.12,0,.28-.07.22-.06.26-.06.12-.02-.2.06-.09.07.33.03-.34-.14-.21-.04.05.07-.46-.2-.57-.28-.86-.7.27.39.03.05-.04-.18.16.61.02-.3.02-.46.06-.32.06-.32-.02.02l.17-.4c.61-.85-.19.08.19-.2.3-.22.55-.24.04-.08-.74.24.23.03-.37.04-2.03.05-3.75,1.69-3.75,3.75s1.72,3.8,3.75,3.75c3.72-.1,7.25-2.39,7.44-6.38s-3-6.56-6.62-6.72-7.58,2.37-7.72,6.37,3.15,6.56,6.9,6.74c2.03.09,3.75-1.79,3.75-3.75,0-2.11-1.72-3.66-3.75-3.75Z"/>
        <path class="cls-24" d="M263.52,59.01c-4.21,1.41-5.46,7.25-2.09,10.23,1.61,1.42,3.88,2.09,5.82.85,1.81-1.15,2.93-3.26,2.83-5.42-.09-1.87-1.65-3.96-3.75-3.75l-2.49.24v7.5l2.49-.26c2.62-.27,4.01-2.17,3.62-4.75s-2.84-4.55-5.43-4.78c-1.96-.18-3.84,1.85-3.75,3.75.1,2.18,1.65,3.56,3.75,3.75-.8-.15-1.05-.18-.73-.08.28.09.09,0-.57-.24.5.27-.55-.56-.26-.22.24.28-.47-.84-.15-.19l-.2-.48c.05.16.08.32.1.49l3.62-4.75-2.49.26c-1.95.2-3.85,1.58-3.75,3.75.08,1.87,1.66,3.95,3.75,3.75l2.49-.24-3.75-3.75c0,.43.04.34.1-.26-.11.39-.06.29.16-.29-.3.57.7-.63.03-.05.58-.42.73-.54.43-.36,2.53.02,3.33-.11,2.4-.38.66.31.82.36.48.17.48.4.62.51.4.3-.2-.2-.11-.07.26.38-.19-.34-.16-.24.08.29-.1-.4-.09-.32.02.24-.11.59-.12.69-.03.31-.26.56-.3.67-.12.33-.41.5-.5.61-.25.33.28-.26.15-.16-.42.31.33-.19.12-.11-.63.25,1.86-.62,3.27-2.61,2.62-4.61-.6-1.85-2.62-3.28-4.61-2.62Z"/>
      </g>
    </g>
    <g>
      <path class="cls-24" d="M204.46,110.92c-.46-.28-4.45-2.63-6.58-1.04-.89.66-1.54,2.08-1.11,2.91.15.29.44.53,1.95.96.89.25,2.03.52,3.38.7-1.67,1.05-3.13,1.54-4.13,1.79-2.17.54-3.73.35-4.46,1.47-.3.46-.25.97-.28,1.87-.06,2.37.79,5.2,2.29,6.58,3.42,3.18,12.82,1.24,14.55-4.5,1.33-4.43-2.58-8.91-5.61-10.74Z"/>
      <path class="cls-24" d="M206.36,107.68c-3.84-2.26-9.44-3.43-12.32.92-1.31,1.97-1.61,4.76-.05,6.67s4.73,2.42,7.13,2.8l-.9-6.85c-2.56,1.48-5.74,1.22-8.16,2.8-2.56,1.67-2.77,4.63-2.44,7.4.7,6.04,4.78,10.11,10.94,10.01,5.1-.08,10.65-2.77,12.7-7.65,2.67-6.35-1.7-12.69-6.9-16.09-4.05-2.65-7.81,3.84-3.79,6.48,2.07,1.36,5.13,4.42,3.6,7.11-1.06,1.87-3.97,2.73-5.97,2.66-3.05-.1-2.4-2.01-3.21-4.35.13-1.05,0-1.05-.39,0-.68.82-.55,1.04.41.64.63.13,1.71-.31,2.29-.47,1.65-.46,3.22-1.22,4.7-2.08,2.56-1.48,2.42-6.34-.9-6.85-.9-.14-1.78-.3-2.67-.51-.34-.09-.67-.18-1.01-.27-1.26-.42-1.09.59.51,3.03.6.48,1.89.63,2.64,1.07,4.17,2.45,7.95-4.03,3.79-6.48Z"/>
    </g>
    <g>
      <path class="cls-24" d="M295.49,111.91c-.36.39-3.47,3.83-2.34,6.24.47,1.01,1.72,1.93,2.63,1.67.31-.09.61-.32,1.33-1.72.43-.82.92-1.88,1.37-3.17.69,1.85.88,3.37.92,4.41.1,2.23-.4,3.73.54,4.66.39.38.9.45,1.78.65,2.31.53,5.25.27,6.91-.92,3.8-2.72,3.79-12.31-1.49-15.16-4.08-2.2-9.24.74-11.65,3.34Z"/>
      <path class="cls-24" d="M292.84,109.25c-3.11,3.46-5.49,8.76-1.52,12.56,1.84,1.76,4.83,2.46,6.97.84,2.02-1.53,2.96-4.45,3.81-6.73h-7.23c.95,2.83.15,5.82,1.1,8.55,1.08,3.1,4.16,3.89,7.11,4.12,5.86.45,10.58-2.79,11.68-8.61.94-4.98-.41-10.75-4.6-13.89-5.54-4.15-12.92-1.28-17.32,3.16-3.4,3.43,1.9,8.74,5.3,5.3,1.81-1.83,5.6-4.46,7.96-2.11,1.43,1.42,1.66,4,1.36,5.88-.48,3.01-2.17,2.52-4.74,2.7l-.76-.17c.84,1.54,1.23,1.84,1.16.88.26-.55.07-1.76.04-2.41-.09-1.86-.47-3.64-1.06-5.4-1.22-3.64-5.95-3.46-7.23,0-.27.72-.77,1.55-.99,2.28l-.47.85c1.92,1.01,3.03.91,3.33-.29.55-.51.85-1.59,1.41-2.2,3.22-3.58-2.07-8.9-5.3-5.3Z"/>
    </g>
    <g>
      <path class="cls-24" d="M241.87,190.31c-6.94,2.45-12.68-3.53-17.43-1.07-2.31,1.19-4.6,4.49-4.65,13.68l28.3,2.19c.43-7.26.85-14.51,1.28-21.77-1.44,2.56-3.79,5.67-7.5,6.98Z"/>
      <path class="cls-24" d="M240.88,186.69c-6.55,1.79-12.96-4.46-19.24-.1-5.03,3.49-5.47,10.8-5.59,16.32-.05,2.14,1.76,3.6,3.75,3.75l28.3,2.19c2.11.16,3.64-1.85,3.75-3.75.43-7.26.85-14.51,1.28-21.77.22-3.82-5.17-4.96-6.99-1.89-1.56,2.62-3.31,4.41-6.15,5.63-4.42,1.9-.61,8.36,3.79,6.48,3.94-1.69,6.68-4.69,8.84-8.32l-6.99-1.89c-.43,7.26-.85,14.51-1.28,21.77l3.75-3.75-28.3-2.19,3.75,3.75c.07-3.01-.32-10.4,4.09-10.51,2.4-.06,5.2,1.54,7.58,1.95,2.63.45,5.08.28,7.66-.43,4.65-1.27,2.68-8.51-1.99-7.23Z"/>
    </g>
    <g>
      <path class="cls-24" d="M288.45,183.69c-5.03,5.37-12.88,2.72-15.96,7.09-1.5,2.12-2.01,6.11,2.18,14.28,8.71-3.7,17.41-7.41,26.12-11.11-2.97-6.63-5.94-13.27-8.9-19.9-.1,2.94-.75,6.78-3.43,9.65Z"/>
      <path class="cls-24" d="M285.8,181.04c-4.85,4.53-13.14,1.93-16.85,8.33-3.2,5.51,0,12.5,2.49,17.58.97,1.98,3.38,2.09,5.13,1.35,8.71-3.7,17.41-7.41,26.12-11.11,2-.85,2.08-3.48,1.35-5.13-2.97-6.63-5.94-13.27-8.9-19.9-1.64-3.66-6.8-1.46-6.99,1.89-.15,2.56-.67,4.96-2.34,6.99-3.03,3.71,2.24,9.04,5.3,5.3s4.26-7.57,4.53-12.3l-6.99,1.89c2.97,6.63,5.94,13.27,8.9,19.9l1.35-5.13c-8.71,3.7-17.41,7.41-26.12,11.11l5.13,1.35c-1.65-3.36-5.28-9.75-.03-11.35s9.19-1.7,13.23-5.47c3.54-3.3-1.78-8.59-5.3-5.3Z"/>
    </g>
    <g>
      <g>
        <g>
          <circle class="cls-24" cx="215.12" cy="61.21" r="24.57"/>
          <path class="cls-24" d="M235.94,61.21c-.32,11.35-9.23,20.82-20.82,20.82s-20.78-9.47-20.82-20.82,9.5-20.82,20.82-20.82,20.5,9.47,20.82,20.82c.13,4.82,7.63,4.84,7.5,0-.33-11.89-7.39-22.47-18.69-26.62s-23.9-.53-31.39,8.53c-16.53,19.99,1.39,50.5,26.88,45.93,13.54-2.43,22.83-14.36,23.2-27.84.13-4.83-7.37-4.82-7.5,0Z"/>
        </g>
        <g>
          <path class="cls-24" d="M215.12,87.78c-14.65,0-26.57-11.92-26.57-26.57s11.92-26.57,26.57-26.57,26.57,11.92,26.57,26.57-11.92,26.57-26.57,26.57ZM215.12,38.64c-12.45,0-22.57,10.12-22.57,22.57s10.12,22.57,22.57,22.57,22.57-10.12,22.57-22.57-10.12-22.57-22.57-22.57Z"/>
          <g>
            <path class="cls-24" d="M215.12,84.03c-12.44-.32-22.79-10.15-22.82-22.82s10.41-22.85,22.82-22.82,22.82,10.37,22.82,22.82-10.4,22.51-22.82,22.82c-4.82.12-4.84,7.62,0,7.5,12.55-.32,23.79-7.74,28.33-19.59s.92-25.73-8.79-33.87-24.2-9.5-35.2-2.81-16.38,19.27-14.1,31.65c2.64,14.36,15.45,24.27,29.76,24.63,4.83.12,4.83-7.38,0-7.5Z"/>
            <path class="cls-24" d="M215.12,34.89c-10.84.33-20.54,6.62-24.53,16.85s-.83,22.67,7.84,29.78c18.51,15.16,46.41-1.24,42.6-24.69-2.07-12.75-13.28-21.56-25.92-21.94-4.83-.15-4.82,7.36,0,7.5,10.23.31,18.82,8.34,18.82,18.82s-8.57,18.78-18.82,18.82-18.45-8.18-18.8-18.13c-.38-10.75,8.29-19.19,18.8-19.51,4.82-.14,4.84-7.65,0-7.5Z"/>
          </g>
        </g>
      </g>
      <g>
        <g>
          <path class="cls-24" d="M202.01,83.07c-3.83,7.36-8.07,17.14-11.13,29.09-2.83,11.05-3.87,20.92-4.16,28.8,6.24,2.51,17.7,6.14,32.21,5.2,19.28-1.26,32.81-9.88,38.44-13.95-2.34-7.36-5.53-15.73-9.94-24.64-5.34-10.78-11.15-19.72-16.48-26.87"/>
          <path class="cls-24" d="M198.77,81.18c-9.57,18.58-14.94,38.9-15.8,59.78-.07,1.78,1.24,3.02,2.75,3.62,24.33,9.62,52.29,6.1,73.54-9.14,1.32-.94,2.26-2.56,1.72-4.23-6.07-18.81-15.05-36.5-26.8-52.4-2.84-3.84-9.35-.1-6.48,3.79,11.37,15.39,20.17,32.4,26.04,50.61l1.72-4.23c-19.8,14.19-45.08,17.35-67.76,8.38l2.75,3.62c.8-19.53,5.82-38.61,14.78-56,2.21-4.28-4.26-8.08-6.48-3.79h0Z"/>
        </g>
        <g>
          <path class="cls-24" d="M214.28,148.31c-9.61,0-19.31-1.87-28.3-5.49l-1.3-.52.05-1.4c.36-9.85,1.78-19.68,4.22-29.22,2.62-10.22,6.42-20.15,11.3-29.52l3.55,1.85c-4.74,9.1-8.43,18.74-10.97,28.66-2.25,8.81-3.61,17.87-4.04,26.96,9.57,3.63,19.93,5.2,30.02,4.54,16.1-1.05,28.42-7.33,36.22-12.74-2.57-7.85-5.72-15.57-9.38-22.97-4.6-9.29-10.08-18.23-16.29-26.56l3.21-2.39c6.35,8.52,11.96,17.66,16.66,27.17,3.97,8.01,7.35,16.4,10.06,24.92l.44,1.38-1.17.85c-8.14,5.89-21.6,13.16-39.49,14.33-1.59.1-3.19.16-4.79.16Z"/>
          <path class="cls-24" d="M214.28,144.56c-9.95-.12-19.39-2.18-28.61-5.88l2.75,3.62c.74-20.38,5.75-40.09,15.05-58.25l-5.13,1.35,3.55,1.85-1.35-5.13c-9.2,17.96-14.43,37.37-15.52,57.51-.09,1.74,1.25,3.07,2.75,3.62,23.14,8.45,48.78,5.31,69.13-8.58,1.32-.9,2.27-2.6,1.72-4.23-6.03-18.11-14.72-35.05-26.05-50.42l-1.35,5.13,3.21-2.39-5.13-1.35c11.8,16.01,20.77,33.63,26.78,52.58l1.72-4.23c-12.87,9.32-27.57,14.65-43.55,14.82-4.82.05-4.84,7.55,0,7.5,17.21-.19,33.44-5.78,47.33-15.84,1.32-.95,2.26-2.55,1.72-4.23-6.21-19.55-15.36-37.85-27.54-54.37-1.1-1.49-3.37-2.66-5.13-1.35l-3.21,2.39c-1.49,1.11-2.65,3.36-1.35,5.13,10.94,14.85,19.46,31.13,25.29,48.63l1.72-4.23c-18.85,12.86-41.91,15.65-63.35,7.82l2.75,3.62c1.01-18.79,5.91-36.98,14.49-53.73.89-1.73.53-4.15-1.35-5.13l-3.55-1.85c-1.72-.9-4.17-.53-5.13,1.35-9.92,19.36-15.29,40.31-16.08,62.04-.06,1.79,1.24,3.01,2.75,3.62,9.81,3.95,20.02,6.02,30.6,6.15,4.83.06,4.83-7.44,0-7.5Z"/>
        </g>
      </g>
      <g>
        <path class="cls-24" d="M169.05,120.77l-1.96-6.72,12.81-3.73c1.69-6.69,4.43-12.99,8.17-18.73,2.81-4.33,6.18-8.3,10-11.81l4.74,5.15c-3.39,3.12-6.37,6.64-8.87,10.48-3.65,5.62-6.24,11.82-7.68,18.45l-.44,2.04-16.78,4.88Z"/>
        <path class="cls-24" d="M172.67,119.77l-1.96-6.72-2.62,4.61,6.86-2c2.05-.6,5.02-.89,6.85-2.11s2.02-3.53,2.65-5.55c1.09-3.5,2.5-6.88,4.24-10.11,3.14-5.83,7.22-10.92,12.03-15.46h-5.3l4.74,5.15v-5.3c-9.4,8.93-15.21,20.01-17.95,32.62l2.62-2.62-16.78,4.88c-4.63,1.35-2.66,8.59,1.99,7.23,5.59-1.63,11.18-3.25,16.78-4.88,1.21-.35,2.34-1.35,2.62-2.62,2.49-11.44,7.48-21.2,16.02-29.31,1.51-1.44,1.34-3.84,0-5.3l-4.74-5.15c-1.4-1.52-3.88-1.35-5.3,0-9.33,8.83-15.82,19.79-19.13,32.2l2.62-2.62-12.81,3.73c-1.92.56-3.19,2.64-2.62,4.61l1.96,6.72c1.35,4.63,8.58,2.66,7.23-1.99Z"/>
      </g>
      <g>
        <path class="cls-24" d="M268.99,112.5l-6.99-.37c.2-3.73-.15-7.46-1.04-11.09-.81-3.34-2.07-6.56-3.74-9.57l-25.46-6.94,1.84-6.75,28.2,7.68.72,1.2c2.38,3.96,4.14,8.23,5.23,12.71,1.04,4.29,1.45,8.7,1.22,13.11Z"/>
        <path class="cls-24" d="M268.99,108.75l-6.99-.37,3.75,3.75c.19-6.71-.68-17.12-5.28-22.55-1.81-2.13-4.74-2.41-7.35-3.11-6.78-1.85-13.57-3.7-20.35-5.54l2.62,4.61,1.84-6.75-4.61,2.62c9.4,2.56,18.8,5.12,28.2,7.68l-2.24-1.72c4.7,7.8,6.95,16,6.67,25.13-.15,4.83,7.35,4.82,7.5,0,.3-9.47-1.84-18.72-6.53-26.97-1.95-3.42-3.92-3.82-7.45-4.78-8.05-2.19-16.09-4.39-24.14-6.58-1.95-.53-4.08.66-4.61,2.62l-1.84,6.75c-.53,1.95.66,4.08,2.62,4.61,8.49,2.31,16.97,4.62,25.46,6.94l-2.24-1.72c3.11,5.92,4.45,12.08,4.26,18.76-.06,2.1,1.77,3.65,3.75,3.75l6.99.37c4.82.25,4.81-7.25,0-7.5Z"/>
      </g>
      <g>
        <path class="cls-24" d="M210.28,194.96l-9.98-.58c.66-11.3,1.96-22.67,3.89-33.8.9-5.19,1.94-10.42,3.11-15.55l9.75,2.22c-1.13,4.96-2.14,10.02-3.01,15.04-1.86,10.76-3.12,21.75-3.76,32.67Z"/>
        <path class="cls-24" d="M210.28,191.21l-9.98-.58,3.75,3.75c1-16.3,3.29-32.42,6.86-48.35l-4.61,2.62,9.75,2.22-2.62-4.61c-3.59,16.04-5.89,32.31-6.9,48.71-.3,4.82,7.2,4.8,7.5,0,.97-15.75,3.18-31.32,6.63-46.72.43-1.91-.57-4.15-2.62-4.61l-9.75-2.22c-1.9-.43-4.15.57-4.61,2.62-3.72,16.57-6.09,33.39-7.13,50.35-.13,2.11,1.83,3.64,3.75,3.75l9.98.58c4.82.28,4.81-7.22,0-7.5Z"/>
      </g>
      <g>
        <path class="cls-24" d="M250.49,192.83c-3.28-8.1-6.55-16.39-9.7-24.63-2.97-7.76-5.93-15.67-8.77-23.51l9.4-3.41c2.82,7.78,5.75,15.64,8.71,23.35,3.14,8.18,6.38,16.41,9.64,24.46l-9.27,3.75Z"/>
        <path class="cls-24" d="M254.1,191.83c-6.44-15.94-12.6-31.99-18.47-48.14l-2.62,4.61,9.4-3.41-4.61-2.62c5.83,16.04,11.95,31.98,18.34,47.8l2.62-4.61-9.27,3.75c-4.42,1.79-2.49,9.05,1.99,7.23l9.27-3.75c1.71-.69,3.45-2.56,2.62-4.61-6.39-15.83-12.51-31.76-18.34-47.8-.65-1.79-2.58-3.36-4.61-2.62l-9.4,3.41c-1.79.65-3.36,2.59-2.62,4.61,5.88,16.16,12.03,32.2,18.47,48.14,1.79,4.42,9.04,2.49,7.23-1.99Z"/>
      </g>
      <g>
        <path class="cls-24" d="M166.2,110.8c-.46-.28-4.45-2.63-6.58-1.04-.89.66-1.54,2.08-1.11,2.91.15.29.44.53,1.95.96.89.25,2.03.52,3.38.7-1.67,1.05-3.13,1.54-4.13,1.79-2.17.54-3.73.35-4.46,1.47-.3.46-.25.97-.28,1.87-.06,2.37.79,5.2,2.29,6.58,3.42,3.18,12.82,1.24,14.55-4.5,1.33-4.43-2.58-8.91-5.61-10.74Z"/>
        <path class="cls-24" d="M168.09,107.56c-3.84-2.26-9.44-3.43-12.32.92-1.31,1.97-1.61,4.76-.05,6.67s4.73,2.42,7.13,2.8l-.9-6.85c-2.56,1.48-5.74,1.22-8.16,2.8-2.56,1.67-2.77,4.63-2.44,7.4.7,6.04,4.78,10.11,10.94,10.01,5.1-.08,10.65-2.77,12.7-7.65,2.67-6.35-1.7-12.69-6.9-16.09-4.05-2.65-7.81,3.84-3.79,6.48,2.07,1.36,5.13,4.42,3.6,7.11-1.06,1.87-3.97,2.73-5.97,2.66-3.05-.1-2.4-2.01-3.21-4.35.13-1.05,0-1.05-.39,0-.68.82-.55,1.04.41.64.63.13,1.71-.31,2.29-.47,1.65-.46,3.22-1.22,4.7-2.08,2.56-1.48,2.42-6.34-.9-6.85-.9-.14-1.78-.3-2.67-.51-.34-.09-.67-.18-1.01-.27-1.26-.42-1.09.59.51,3.03.6.48,1.89.63,2.64,1.07,4.17,2.45,7.95-4.03,3.79-6.48Z"/>
      </g>
      <g>
        <path class="cls-24" d="M257.23,111.79c-.36.39-3.47,3.83-2.34,6.24.47,1.01,1.72,1.93,2.63,1.67.31-.09.61-.32,1.33-1.72.43-.82.92-1.88,1.37-3.17.69,1.85.88,3.37.92,4.41.1,2.23-.4,3.73.54,4.66.39.38.9.45,1.78.65,2.31.53,5.25.27,6.91-.92,3.8-2.72,3.79-12.31-1.49-15.16-4.08-2.2-9.24.74-11.65,3.34Z"/>
        <path class="cls-24" d="M254.57,109.14c-3.11,3.46-5.49,8.76-1.52,12.56,1.84,1.76,4.83,2.46,6.97.84,2.02-1.53,2.96-4.45,3.81-6.73h-7.23c.95,2.83.15,5.82,1.1,8.55,1.08,3.1,4.16,3.89,7.11,4.12,5.86.45,10.58-2.79,11.68-8.61.94-4.98-.41-10.75-4.6-13.89-5.54-4.15-12.92-1.28-17.32,3.16-3.4,3.43,1.9,8.74,5.3,5.3,1.81-1.83,5.6-4.46,7.96-2.11,1.43,1.42,1.66,4,1.36,5.88-.48,3.01-2.17,2.52-4.74,2.7l-.76-.17c.84,1.54,1.23,1.84,1.16.88.26-.55.07-1.76.04-2.41-.09-1.86-.47-3.64-1.06-5.4-1.22-3.64-5.95-3.46-7.23,0-.27.72-.77,1.55-.99,2.28l-.47.85c1.92,1.01,3.03.91,3.33-.29.55-.51.85-1.59,1.41-2.2,3.22-3.58-2.07-8.9-5.3-5.3Z"/>
      </g>
      <g>
        <path class="cls-24" d="M203.61,190.19c-6.94,2.45-12.68-3.53-17.43-1.07-2.31,1.19-4.6,4.49-4.65,13.68l28.3,2.19c.43-7.26.85-14.51,1.28-21.77-1.44,2.56-3.79,5.67-7.5,6.98Z"/>
        <path class="cls-24" d="M202.61,186.58c-6.55,1.79-12.96-4.46-19.24-.1-5.03,3.49-5.47,10.8-5.59,16.32-.05,2.14,1.76,3.6,3.75,3.75l28.3,2.19c2.11.16,3.64-1.85,3.75-3.75.43-7.26.85-14.51,1.28-21.77.22-3.82-5.17-4.96-6.99-1.89-1.56,2.62-3.31,4.41-6.15,5.63-4.42,1.9-.61,8.36,3.79,6.48,3.94-1.69,6.68-4.69,8.84-8.32l-6.99-1.89c-.43,7.26-.85,14.51-1.28,21.77l3.75-3.75-28.3-2.19,3.75,3.75c.07-3.01-.32-10.4,4.09-10.51,2.4-.06,5.2,1.54,7.58,1.95,2.63.45,5.08.28,7.66-.43,4.65-1.27,2.68-8.51-1.99-7.23Z"/>
      </g>
      <g>
        <path class="cls-24" d="M250.18,183.57c-5.03,5.37-12.88,2.72-15.96,7.09-1.5,2.12-2.01,6.11,2.18,14.28,8.71-3.7,17.41-7.41,26.12-11.11-2.97-6.63-5.94-13.27-8.9-19.9-.1,2.94-.75,6.78-3.43,9.65Z"/>
        <path class="cls-24" d="M247.53,180.92c-4.85,4.53-13.14,1.93-16.85,8.33-3.2,5.51,0,12.5,2.49,17.58.97,1.98,3.38,2.09,5.13,1.35,8.71-3.7,17.41-7.41,26.12-11.11,2-.85,2.08-3.48,1.35-5.13-2.97-6.63-5.94-13.27-8.9-19.9-1.64-3.66-6.8-1.46-6.99,1.89-.15,2.56-.67,4.96-2.34,6.99-3.03,3.71,2.24,9.04,5.3,5.3s4.26-7.57,4.53-12.3l-6.99,1.89c2.97,6.63,5.94,13.27,8.9,19.9l1.35-5.13c-8.71,3.7-17.41,7.41-26.12,11.11l5.13,1.35c-1.65-3.36-5.28-9.75-.03-11.35s9.19-1.7,13.23-5.47c3.54-3.3-1.78-8.59-5.3-5.3Z"/>
      </g>
    </g>
    <g>
      <path class="cls-24" d="M213.06,87.94c-14.65,0-26.57-11.92-26.57-26.57s11.92-26.57,26.57-26.57,26.57,11.92,26.57,26.57-11.92,26.57-26.57,26.57ZM213.06,38.8c-12.45,0-22.57,10.12-22.57,22.57s10.12,22.57,22.57,22.57,22.57-10.12,22.57-22.57-10.12-22.57-22.57-22.57Z"/>
      <g>
        <path class="cls-24" d="M213.06,84.19c-12.44-.32-22.79-10.15-22.82-22.82s10.41-22.85,22.82-22.82,22.82,10.37,22.82,22.82-10.4,22.51-22.82,22.82c-4.82.12-4.84,7.62,0,7.5,12.55-.32,23.79-7.74,28.33-19.59,4.54-11.84.92-25.73-8.79-33.87-9.81-8.23-24.2-9.5-35.2-2.81-10.78,6.56-16.38,19.27-14.1,31.65,2.64,14.36,15.45,24.27,29.76,24.63,4.83.12,4.83-7.38,0-7.5Z"/>
        <path class="cls-24" d="M213.06,35.05c-10.84.33-20.54,6.62-24.53,16.85s-.83,22.67,7.84,29.78c18.51,15.16,46.41-1.24,42.6-24.69-2.07-12.75-13.28-21.56-25.92-21.94-4.83-.15-4.82,7.36,0,7.5,10.24.31,18.82,8.34,18.82,18.82s-8.57,18.78-18.82,18.82-18.45-8.18-18.8-18.13c-.38-10.75,8.29-19.19,18.8-19.51,4.82-.14,4.84-7.65,0-7.5Z"/>
      </g>
    </g>
    <g>
      <path class="cls-24" d="M212.22,148.46c-9.61,0-19.31-1.87-28.3-5.49l-1.3-.52.05-1.4c.36-9.85,1.78-19.68,4.22-29.22,2.62-10.22,6.42-20.15,11.3-29.52l3.55,1.85c-4.74,9.1-8.43,18.74-10.97,28.66-2.25,8.81-3.61,17.87-4.04,26.96,9.58,3.63,19.93,5.2,30.02,4.54,16.1-1.05,28.42-7.33,36.22-12.74-2.57-7.86-5.72-15.58-9.38-22.97-4.6-9.29-10.08-18.23-16.29-26.56l3.21-2.39c6.35,8.52,11.96,17.66,16.66,27.17,3.97,8.01,7.35,16.39,10.06,24.92l.44,1.38-1.17.85c-8.14,5.89-21.6,13.16-39.49,14.33-1.59.1-3.19.16-4.78.16Z"/>
      <path class="cls-24" d="M212.22,144.71c-9.95-.12-19.4-2.18-28.61-5.88l2.75,3.62c.74-20.38,5.75-40.09,15.05-58.25l-5.13,1.35,3.55,1.85-1.35-5.13c-9.2,17.96-14.44,37.37-15.52,57.51-.09,1.74,1.25,3.07,2.75,3.62,23.15,8.45,48.78,5.31,69.13-8.58,1.32-.9,2.27-2.6,1.72-4.23-6.02-18.1-14.73-35.06-26.05-50.42l-1.35,5.13,3.21-2.39-5.13-1.35c11.8,16.01,20.77,33.63,26.78,52.58l1.72-4.23c-12.87,9.32-27.57,14.65-43.55,14.82-4.82.05-4.84,7.55,0,7.5,17.21-.19,33.44-5.78,47.33-15.84,1.32-.95,2.26-2.55,1.72-4.23-6.21-19.55-15.36-37.85-27.54-54.37-1.1-1.49-3.37-2.66-5.13-1.35l-3.21,2.39c-1.49,1.11-2.65,3.36-1.35,5.13,10.94,14.85,19.47,31.13,25.29,48.63l1.72-4.23c-18.85,12.86-41.91,15.65-63.35,7.82l2.75,3.62c1.01-18.79,5.91-36.98,14.49-53.73.89-1.73.53-4.15-1.35-5.13l-3.55-1.85c-1.72-.9-4.17-.53-5.13,1.35-9.92,19.36-15.29,40.31-16.08,62.04-.06,1.79,1.24,3.01,2.75,3.62,9.81,3.95,20.02,6.02,30.6,6.15,4.83.06,4.83-7.44,0-7.5Z"/>
    </g>
    <g>
      <path class="cls-24" d="M166.99,120.92l-1.96-6.72,12.81-3.73c1.69-6.69,4.43-12.99,8.17-18.73,2.81-4.33,6.18-8.3,10-11.81l4.74,5.15c-3.39,3.12-6.37,6.64-8.87,10.48-3.65,5.62-6.24,11.82-7.68,18.45l-.44,2.04-16.78,4.88Z"/>
      <path class="cls-24" d="M170.61,119.93l-1.96-6.72-2.62,4.61,6.86-2c2.05-.6,5.02-.89,6.85-2.11s2.02-3.53,2.65-5.55c1.09-3.5,2.5-6.88,4.24-10.11,3.14-5.83,7.22-10.92,12.03-15.46h-5.3l4.74,5.15v-5.3c-9.4,8.93-15.21,20.01-17.95,32.62l2.62-2.62c-5.59,1.63-11.18,3.25-16.78,4.88-4.63,1.35-2.66,8.59,1.99,7.23,5.59-1.63,11.18-3.25,16.78-4.88,1.21-.35,2.34-1.35,2.62-2.62,2.49-11.44,7.48-21.2,16.02-29.31,1.51-1.44,1.34-3.84,0-5.3l-4.74-5.15c-1.4-1.52-3.88-1.35-5.3,0-9.33,8.83-15.82,19.79-19.13,32.2l2.62-2.62-12.81,3.73c-1.92.56-3.19,2.64-2.62,4.61l1.96,6.72c1.35,4.63,8.58,2.66,7.23-1.99Z"/>
    </g>
    <g>
      <path class="cls-24" d="M266.93,112.65l-6.99-.37c.2-3.73-.15-7.46-1.04-11.09-.81-3.35-2.07-6.56-3.74-9.57l-25.46-6.94,1.84-6.75,28.2,7.68.72,1.2c2.38,3.95,4.14,8.23,5.23,12.72,1.04,4.29,1.45,8.7,1.22,13.11Z"/>
      <path class="cls-24" d="M266.93,108.9l-6.99-.37,3.75,3.75c.19-6.71-.68-17.12-5.28-22.55-1.81-2.13-4.74-2.41-7.35-3.11-6.78-1.85-13.57-3.7-20.35-5.54l2.62,4.61,1.84-6.75-4.61,2.62c9.4,2.56,18.8,5.12,28.2,7.68l-2.24-1.72c4.7,7.8,6.95,16,6.67,25.13-.15,4.83,7.35,4.82,7.5,0,.3-9.47-1.84-18.72-6.53-26.97-1.95-3.42-3.92-3.82-7.45-4.78-8.05-2.19-16.09-4.39-24.14-6.58-1.95-.53-4.08.66-4.61,2.62l-1.84,6.75c-.53,1.95.66,4.08,2.62,4.61,8.49,2.31,16.97,4.62,25.46,6.94l-2.24-1.72c3.11,5.92,4.45,12.08,4.26,18.76-.06,2.1,1.77,3.65,3.75,3.75l6.99.37c4.82.25,4.81-7.25,0-7.5Z"/>
    </g>
    <g>
      <path class="cls-24" d="M208.22,195.12l-9.98-.58c.66-11.29,1.96-22.66,3.89-33.8.9-5.19,1.94-10.43,3.11-15.55l9.75,2.22c-1.13,4.96-2.14,10.02-3.01,15.04-1.86,10.76-3.12,21.76-3.76,32.67Z"/>
      <path class="cls-24" d="M208.22,191.37l-9.98-.58,3.75,3.75c1-16.3,3.29-32.42,6.86-48.35l-4.61,2.62,9.75,2.22-2.62-4.61c-3.59,16.04-5.89,32.31-6.9,48.71-.3,4.82,7.2,4.8,7.5,0,.97-15.75,3.18-31.32,6.63-46.72.43-1.91-.57-4.15-2.62-4.61l-9.75-2.22c-1.9-.43-4.15.57-4.61,2.62-3.72,16.57-6.09,33.39-7.13,50.35-.13,2.11,1.83,3.64,3.75,3.75l9.98.58c4.82.28,4.81-7.22,0-7.5Z"/>
    </g>
    <g>
      <path class="cls-24" d="M248.43,192.98c-3.29-8.13-6.56-16.42-9.7-24.63-2.99-7.81-5.94-15.72-8.77-23.51l9.4-3.41c2.81,7.73,5.74,15.59,8.71,23.35,3.13,8.16,6.37,16.39,9.63,24.46l-9.27,3.75Z"/>
      <path class="cls-24" d="M252.05,191.99c-6.44-15.94-12.6-31.99-18.47-48.14l-2.62,4.61,9.4-3.41-4.61-2.62c5.83,16.04,11.95,31.98,18.34,47.8l2.62-4.61-9.27,3.75c-4.42,1.79-2.49,9.05,1.99,7.23l9.27-3.75c1.71-.69,3.45-2.56,2.62-4.61-6.4-15.83-12.51-31.76-18.34-47.8-.65-1.79-2.58-3.36-4.61-2.62l-9.4,3.41c-1.79.65-3.36,2.59-2.62,4.61,5.87,16.16,12.03,32.21,18.47,48.14,1.79,4.42,9.04,2.49,7.23-1.99Z"/>
    </g>
    <g>
      <path class="cls-24" d="M214.67,70.93c-.34,0-.68-.05-1.02-.18l-.97-.36-.5-1s0,0,0,0h0c-.37-.82-.39-2.15.78-3.2.33-.29.74-.55,1.2-.76,2.16-.98,3.71-.14,4.28,1.12.57,1.26.18,2.98-1.97,3.96-.48.22-1.11.43-1.79.43ZM213.88,68.61c.59,1.29,1.94,1.49,2.37,1.35.33-.21,1.07-1.35.48-2.65h0c-.59-1.3-1.94-1.49-2.38-1.35-.32.2-1.06,1.35-.48,2.64t0,0l.57-.26-.57.26Z"/>
      <g>
        <path class="cls-24" d="M214.67,67.18c.61.03-.05-.06-.31-.15-.23-.08-.46-.17-.68-.26l2.24,1.72c-.13-.27-.26-.54-.4-.8-.18-.33-.15-.51.18.46-.16-.46.03-.06,0,.17-.06.48-.17.46-.38.81.12-.19.39-.48.08-.12.35-.17.43-.23.23-.16-.21.06-.11.03.3-.1h-.28c.4.01.45,0,.15-.04-.24-.05-.25-.04-.05,0,.27.08.19.04-.25-.11l-.33-.26c.23.25.24.25.04.02-.11-.18-.33-.91-.24-.37l-.06-.51c0,.33,0,.33.03,0,.05-.29.05-.33,0-.12-.08.26-.05.17.1-.27l.23-.28c-.27.25-.31.3-.12.15.4-.21-.57.3,0,.04-.15.07-1.08.2-.49.16-1.95.12-3.84,1.64-3.75,3.75.09,1.93,1.65,3.87,3.75,3.75,3.9-.23,7.8-2.94,7.75-7.18s-3.8-6.64-7.62-6.13c-4.12.55-7.61,4.52-6.33,8.77.38,1.25,1.19,2.82,2.32,3.48s2.63.99,3.88,1.06c1.96.11,3.84-1.8,3.75-3.75-.1-2.12-1.65-3.64-3.75-3.75Z"/>
        <path class="cls-24" d="M210.65,70.51c1.16,2.27,4.01,3.75,6.53,3.09,2.93-.77,4.21-4.65,3.18-7.28l-6.85,2.89h0c1.09,1.63,3.36,2.49,5.13,1.35s2.3-3.26,1.35-5.13c-1.13-2.22-4.11-3.89-6.61-3.07-3.4,1.1-4.69,6.36-2.13,8.91,1.28,1.28,3,1.28,4.54.59l.57-.26-3.79-6.48-.57.26c-1.79.81-2.37,3.55-1.35,5.13,1.19,1.85,3.21,2.22,5.13,1.35l.57-.26c1.79-.81,2.37-3.55,1.35-5.13-1.19-1.85-3.21-2.21-5.13-1.35l-.57.26,4.54.59h0c.32.55.64,1.1.96,1.65-.08-.2-.11-.86-.13-.3,0,.16-.14,1.07.03.56-.03.08-.39.77-.14.37-.5.81-.52.58-.25.37l-1.65.96c.48-.12-1.14.09-.59.1-.77-.13-.96-.15-.58-.07.25.08.2.05-.14-.08-.34-.16-.39-.17-.14-.04-.47-.4-.6-.5-.38-.3.2.19.12.07-.25-.38.09.12.16.26.22.39l6.48-3.79h0c-1.04-1.57-2.9-2.29-4.68-1.54-1.57.66-2.86,2.68-2.17,4.42.16.42.09.83.09,0,0-.27.21-.83.02-.26-.15.45.41-.82.11-.33.32-.6.85-.94,1.58-1.01,1.23-.34,1.58-.5,1.05-.46-.52.04.96.19.53.08-.57-.16.25.12.36.19-.54-.32.59.67.16.15l.32.44c-.09-.12-.16-.25-.22-.39-.89-1.75-3.5-2.4-5.13-1.35-1.79,1.15-2.3,3.26-1.35,5.13Z"/>
      </g>
    </g>
    <g>
      <path class="cls-24" d="M216.21,75.92c2.02,1.31,4.74,1.72,7.02.91,2.71-.98,4.72-3.33,5.3-6.15.14-.66-.19-1.35-.87-1.54-.62-.17-1.4.21-1.54.87-.42,2.04-1.76,3.81-3.69,4.45-1.14.38-2.25.36-3.34.04-.22-.07-.44-.14-.65-.23-.15-.06.15.07-.06-.03-.09-.04-.18-.08-.26-.13-.22-.11-.43-.23-.63-.36-.57-.37-1.38-.11-1.71.45-.36.61-.12,1.34.45,1.71h0Z"/>
      <path class="cls-24" d="M214.31,79.16c3.72,2.15,8.31,2.51,12.1.31,3.08-1.79,5.87-5.43,5.85-9.12-.02-4.36-5.56-6.72-8.59-3.43-.96,1.04-.87,2.87-1.94,3.72-1.42,1.13-3.47-.75-5.2.4h3.79c-2.22-1.21-4.65-1.76-6.74.07-2.37,2.08-2.04,5.32-.02,7.46,3.33,3.51,8.62-1.8,5.3-5.3l.35.58v1.99l-1.36,1.37h-1.99c.21.06.47.2.68.31,1.13.62,2.66.75,3.79,0h0c-.96.12-1.93.25-2.89.37,2.66.92,5.67.75,8.08-.78.97-.61,1.79-1.43,2.47-2.35.37-.5.68-1,.96-1.55l.38-.9c.61-1.26.06-1.07-1.67.57l-1.89-.51-.49-.46-.51-1.89c.08,3.43-4.5,3.91-6.66,2.66-4.18-2.43-7.96,4.05-3.79,6.48Z"/>
    </g>
    <g>
      <path class="cls-24" d="M224.18,67.67c-1.99,0-3.02-1.19-3.15-2.45l-.11-1.03.69-.9c.69-.85,1.77-1.12,2.55-1.2,2.35-.24,3.55,1.04,3.7,2.42.14,1.39-.78,2.89-3.13,3.13-.19.02-.38.03-.55.03ZM222.89,65.02c.15,1.42,1.36,2.03,1.82,2.04.37-.09,1.44-.94,1.3-2.36h0c-.15-1.41-1.36-2.02-1.82-2.03-.37.09-1.44.94-1.3,2.34,0,0,0,0,0,.01l.63-.06-.63.06Z"/>
      <g>
        <path class="cls-24" d="M224.18,63.92c.27.09.19.08-.23-.04l.25.09c.12.18.61.93.54.68-.17-.54.09,1.06,0,.17-.02-.21-.04-.43-.07-.64l-.51,1.89c.14-.18.27-.37.42-.54.48-.58-.05-.04-.17.26-.33.14-.29.14.12.01-.52.04-.49.04.09,0,.5.01.57.01.18,0-.35-.19-.34-.18.02.03-.23-.11-.41-.27-.54-.49-.17-.47-.19-.51-.08-.11-.11-.31-.1-.62,0-.93-.11.39-.08.35.1-.14.33-.37.35-.4.06-.09.14-.17.32-.27.53-.3-.24.09-.49.15-.75.2.38-.05.39-.07.02-.05-2.03.05-3.75,1.69-3.75,3.75s1.72,3.8,3.75,3.75c3.85-.1,7.37-2.53,7.45-6.65s-3.81-6.79-7.61-6.42c-3.02.29-6.96,2.62-6.81,6.09.18,4.08,2.88,6.78,6.98,6.97,2.03.09,3.75-1.79,3.75-3.75,0-2.11-1.72-3.66-3.75-3.75Z"/>
        <path class="cls-24" d="M219.27,66.02c.42,2.67,3.18,5.09,5.93,4.72s4.69-3.36,4.55-6.04c-.1-1.96-1.65-3.84-3.75-3.75s-3.75,1.65-3.75,3.75h0c2.46-.33,4.91-.66,7.37-1-.43-2.79-3.54-5.42-6.43-4.65-2.45.65-4.29,3.48-4.05,5.97.18,1.85,1.58,3.97,3.75,3.75l.63-.06c1.95-.2,3.85-1.58,3.75-3.75-.08-1.86-1.66-3.97-3.75-3.75l-.63.06c-1.95.2-3.85,1.58-3.75,3.75.08,1.86,1.66,3.97,3.75,3.75l.63-.06c1.95-.2,3.85-1.58,3.75-3.75-.08-1.86-1.66-3.97-3.75-3.75l-.63.06,3.75,3.75c-.03-.31.1-.57-.1.26.15-.64-.33.56-.11.2.23-.39-.63.64-.2.25.47-.43-.77.48-.32.24l-2.52.34c.23.07.16.04-.19-.09-.36-.16-.41-.18-.17-.04l-.47-.37c.47.47-.4-.78-.08-.13l-.2-.48c.05.16.08.32.1.49.28,1.84,2.46,2.91,4.11,2.69,1.82-.25,3.25-1.8,3.25-3.68h0c-2.5,0-5,0-7.5,0,.04.79.29-.7.05-.04.04-.12.39-.74.12-.33.54-.83.38-.44.13-.22l.53-.41c-.47.26-.09.23,1.16-.11,1.26,0,1.66-.05,1.2-.19-.28-.09-.09,0,.57.24-.5-.27.57.55.26.22-.28-.29.43.77.15.19l.2.47c-.05-.16-.09-.33-.1-.49-.31-1.94-2.84-3.19-4.61-2.62-2.11.68-2.95,2.53-2.62,4.61Z"/>
      </g>
    </g>
    <g>
      <path class="cls-24" d="M164.14,110.96c-.46-.28-4.45-2.63-6.58-1.04-.89.66-1.54,2.08-1.11,2.91.15.29.44.53,1.95.96.89.25,2.03.52,3.38.7-1.67,1.05-3.13,1.54-4.13,1.79-2.17.54-3.73.35-4.46,1.47-.3.46-.25.97-.28,1.87-.06,2.37.79,5.2,2.29,6.58,3.42,3.18,12.82,1.24,14.55-4.5,1.33-4.43-2.58-8.91-5.61-10.74Z"/>
      <path class="cls-24" d="M166.03,107.72c-3.84-2.26-9.44-3.43-12.32.92-1.31,1.97-1.61,4.76-.05,6.67s4.73,2.42,7.13,2.8l-.9-6.85c-2.56,1.48-5.74,1.22-8.16,2.8-2.56,1.67-2.77,4.63-2.44,7.4.7,6.04,4.78,10.11,10.94,10.01,5.1-.08,10.65-2.77,12.7-7.65,2.67-6.35-1.7-12.69-6.9-16.09-4.05-2.65-7.81,3.84-3.79,6.48,2.07,1.36,5.13,4.42,3.6,7.11-1.06,1.87-3.97,2.73-5.97,2.66-3.05-.1-2.4-2.01-3.21-4.35.13-1.05,0-1.05-.39,0-.68.82-.55,1.04.41.64.63.13,1.71-.31,2.29-.47,1.65-.46,3.22-1.22,4.7-2.08,2.56-1.48,2.42-6.34-.9-6.85-.9-.14-1.78-.3-2.67-.51-.34-.09-.67-.18-1.01-.27-1.26-.42-1.09.59.51,3.03.6.48,1.89.63,2.64,1.07,4.17,2.45,7.95-4.03,3.79-6.48Z"/>
    </g>
    <g>
      <path class="cls-24" d="M255.17,111.95c-.36.39-3.47,3.83-2.34,6.24.47,1.01,1.72,1.93,2.63,1.67.31-.09.61-.32,1.33-1.72.43-.82.92-1.88,1.37-3.17.69,1.85.88,3.37.92,4.41.1,2.23-.4,3.73.54,4.66.39.38.9.45,1.78.65,2.31.53,5.25.27,6.91-.92,3.8-2.72,3.79-12.31-1.49-15.16-4.08-2.2-9.24.74-11.65,3.34Z"/>
      <path class="cls-24" d="M252.52,109.29c-3.11,3.46-5.49,8.76-1.52,12.56,1.84,1.76,4.83,2.46,6.97.84,2.02-1.53,2.96-4.45,3.81-6.73h-7.23c.95,2.83.15,5.82,1.1,8.55,1.08,3.1,4.16,3.89,7.11,4.12,5.86.45,10.58-2.79,11.68-8.61.94-4.98-.41-10.75-4.6-13.89-5.54-4.15-12.92-1.28-17.32,3.16-3.4,3.43,1.9,8.74,5.3,5.3,1.81-1.83,5.6-4.46,7.96-2.11,1.43,1.42,1.66,4,1.36,5.88-.48,3.01-2.17,2.52-4.74,2.7l-.76-.17c.84,1.54,1.23,1.84,1.16.88.26-.55.07-1.76.04-2.41-.09-1.86-.47-3.64-1.06-5.4-1.22-3.64-5.95-3.46-7.23,0-.27.72-.77,1.55-.99,2.28l-.47.85c1.92,1.01,3.03.91,3.33-.29.55-.51.85-1.59,1.41-2.2,3.22-3.58-2.07-8.9-5.3-5.3Z"/>
    </g>
    <g>
      <path class="cls-24" d="M201.55,190.35c-6.94,2.45-12.68-3.53-17.43-1.07-2.31,1.19-4.6,4.49-4.65,13.68l28.3,2.19c.43-7.26.85-14.51,1.28-21.77-1.44,2.56-3.79,5.67-7.5,6.98Z"/>
      <path class="cls-24" d="M200.55,186.73c-6.55,1.79-12.96-4.46-19.24-.1-5.03,3.49-5.47,10.8-5.59,16.32-.05,2.14,1.76,3.6,3.75,3.75l28.3,2.19c2.11.16,3.64-1.85,3.75-3.75.43-7.26.85-14.51,1.28-21.77.22-3.82-5.17-4.96-6.99-1.89-1.56,2.62-3.31,4.41-6.15,5.63-4.42,1.9-.61,8.36,3.79,6.48,3.94-1.69,6.68-4.69,8.84-8.32l-6.99-1.89c-.43,7.26-.85,14.51-1.28,21.77l3.75-3.75-28.3-2.19,3.75,3.75c.07-3.01-.32-10.4,4.09-10.51,2.4-.06,5.2,1.54,7.58,1.95,2.63.45,5.08.28,7.66-.43,4.65-1.27,2.68-8.51-1.99-7.23Z"/>
    </g>
    <g>
      <path class="cls-24" d="M248.13,183.73c-5.03,5.37-12.88,2.72-15.96,7.09-1.5,2.12-2.01,6.11,2.18,14.28,8.71-3.7,17.41-7.41,26.12-11.11-2.97-6.63-5.94-13.27-8.9-19.9-.1,2.94-.75,6.78-3.43,9.65Z"/>
      <path class="cls-24" d="M245.47,181.08c-4.85,4.53-13.14,1.93-16.85,8.33-3.2,5.51,0,12.5,2.49,17.58.97,1.98,3.38,2.09,5.13,1.35,8.71-3.7,17.41-7.41,26.12-11.11,2-.85,2.08-3.48,1.35-5.13-2.97-6.63-5.94-13.27-8.9-19.9-1.64-3.66-6.8-1.46-6.99,1.89-.15,2.56-.67,4.96-2.34,6.99-3.03,3.71,2.24,9.04,5.3,5.3s4.26-7.57,4.53-12.3l-6.99,1.89c2.97,6.63,5.94,13.27,8.9,19.9l1.35-5.13c-8.71,3.7-17.41,7.41-26.12,11.11l5.13,1.35c-1.65-3.36-5.28-9.75-.03-11.35s9.19-1.7,13.23-5.47c3.54-3.3-1.78-8.59-5.3-5.3Z"/>
    </g>
  </g>
  <g>
    <g>
      <circle class="cls-14" cx="295.05" cy="61.49" r="24.57"/>
      <path class="cls-14" d="M281.94,83.35c-3.83,7.36-8.07,17.14-11.13,29.09-2.83,11.05-3.87,20.92-4.16,28.8,6.24,2.51,17.7,6.14,32.21,5.2,19.28-1.26,32.81-9.88,38.44-13.95-2.34-7.36-5.53-15.73-9.94-24.64-5.34-10.78-11.15-19.72-16.48-26.87"/>
      <path class="cls-2" d="M280.37,82.63c-2.88,2.65-6.28,6.31-9.43,11.15-4.89,7.52-7.1,14.71-8.17,19.61-4.93,1.43-9.85,2.87-14.78,4.3"/>
      <path class="cls-2" d="M312.62,81.44c8.95,2.44,17.9,4.88,26.84,7.31,1.59,2.65,3.58,6.61,4.83,11.74,1.18,4.87,1.29,9.1,1.13,12.1"/>
      <path class="cls-1" d="M292.1,146.41c-1.11,4.89-2.14,9.99-3.06,15.3-2.04,11.81-3.22,22.95-3.82,33.24"/>
      <path class="cls-1" d="M316.64,143.25c2.8,7.72,5.71,15.53,8.74,23.43,3.2,8.34,6.42,16.52,9.67,24.54"/>
      <path class="cls-34" d="M246.13,111.08c-.46-.28-4.45-2.63-6.58-1.04-.89.66-1.54,2.08-1.11,2.91.15.29.44.53,1.95.96.89.25,2.03.52,3.38.7-1.67,1.05-3.13,1.54-4.13,1.79-2.17.54-3.73.35-4.46,1.47-.3.46-.25.97-.28,1.87-.06,2.37.79,5.2,2.29,6.58,3.42,3.18,12.82,1.24,14.55-4.5,1.33-4.43-2.58-8.91-5.61-10.74Z"/>
      <path class="cls-34" d="M337.16,112.07c-.36.39-3.47,3.83-2.34,6.24.47,1.01,1.72,1.93,2.63,1.67.31-.09.61-.32,1.33-1.72.43-.82.92-1.88,1.37-3.17.69,1.85.88,3.37.92,4.41.1,2.23-.4,3.73.54,4.66.39.38.9.45,1.78.65,2.31.53,5.25.27,6.91-.92,3.8-2.72,3.79-12.31-1.49-15.16-4.08-2.2-9.24.74-11.65,3.34Z"/>
      <path class="cls-34" d="M283.54,190.47c-6.94,2.45-12.68-3.53-17.43-1.07-2.31,1.19-4.6,4.49-4.65,13.68l28.3,2.19c.43-7.26.85-14.51,1.28-21.77-1.44,2.56-3.79,5.67-7.5,6.98Z"/>
      <path class="cls-34" d="M330.11,183.85c-5.03,5.37-12.88,2.72-15.96,7.09-1.5,2.12-2.01,6.11,2.18,14.28,8.71-3.7,17.41-7.41,26.12-11.11-2.97-6.63-5.94-13.27-8.9-19.9-.1,2.94-.75,6.78-3.43,9.65Z"/>
    </g>
    <circle class="cls-19" cx="293.02" cy="61.54" r="24.57"/>
    <path class="cls-19" d="M279.91,83.4c-3.83,7.36-8.07,17.14-11.13,29.09-2.83,11.05-3.87,20.92-4.16,28.8,6.24,2.51,17.7,6.14,32.21,5.2,19.28-1.26,32.81-9.88,38.44-13.95-2.34-7.36-5.53-15.73-9.94-24.64-5.34-10.78-11.15-19.72-16.48-26.87"/>
    <path class="cls-16" d="M278.35,82.68c-2.88,2.65-6.28,6.31-9.43,11.15-4.89,7.52-7.1,14.71-8.17,19.61-4.93,1.43-9.85,2.87-14.78,4.3"/>
    <path class="cls-16" d="M310.59,81.49c8.95,2.44,17.9,4.88,26.84,7.31,1.59,2.65,3.58,6.61,4.83,11.74,1.18,4.87,1.29,9.1,1.13,12.1"/>
    <path class="cls-18" d="M290.07,146.47c-1.11,4.89-2.14,9.99-3.06,15.3-2.04,11.81-3.22,22.95-3.82,33.24"/>
    <path class="cls-18" d="M314.62,143.31c2.8,7.72,5.71,15.53,8.74,23.43,3.2,8.34,6.42,16.52,9.67,24.54"/>
    <ellipse class="cls-17" cx="295.27" cy="68.14" rx=".93" ry=".29" transform="translate(-1.74 128.23) rotate(-24.43)"/>
    <path class="cls-28" d="M296.17,76.1c2.02,1.31,4.74,1.72,7.02.91,2.71-.98,4.72-3.33,5.3-6.15.14-.66-.19-1.35-.87-1.54-.62-.17-1.4.21-1.54.87-.42,2.04-1.76,3.81-3.69,4.45-1.14.38-2.25.36-3.34.04-.22-.07-.44-.14-.65-.23-.15-.06.15.07-.06-.03-.09-.04-.18-.08-.26-.13-.22-.11-.43-.23-.63-.36-.57-.37-1.38-.11-1.71.45-.36.61-.12,1.34.45,1.71h0Z"/>
    <ellipse class="cls-17" cx="304.41" cy="65.04" rx=".93" ry=".29" transform="translate(-5 30.96) rotate(-5.77)"/>
    <path class="cls-30" d="M244.1,111.13c-.46-.28-4.45-2.63-6.58-1.04-.89.66-1.54,2.08-1.11,2.91.15.29.44.53,1.95.96.89.25,2.03.52,3.38.7-1.67,1.05-3.13,1.54-4.13,1.79-2.17.54-3.73.35-4.46,1.47-.3.46-.25.97-.28,1.87-.06,2.37.79,5.2,2.29,6.58,3.42,3.18,12.82,1.24,14.55-4.5,1.33-4.43-2.58-8.91-5.61-10.74Z"/>
    <path class="cls-30" d="M335.13,112.12c-.36.39-3.47,3.83-2.34,6.24.47,1.01,1.72,1.93,2.63,1.67.31-.09.61-.32,1.33-1.72.43-.82.92-1.88,1.37-3.17.69,1.85.88,3.37.92,4.41.1,2.23-.4,3.73.54,4.66.39.38.9.45,1.78.65,2.31.53,5.25.27,6.91-.92,3.8-2.72,3.79-12.31-1.49-15.16-4.08-2.2-9.24.74-11.65,3.34Z"/>
    <path class="cls-30" d="M281.51,190.52c-6.94,2.45-12.68-3.53-17.43-1.07-2.31,1.19-4.6,4.49-4.65,13.68l28.3,2.19c.43-7.26.85-14.51,1.28-21.77-1.44,2.56-3.79,5.67-7.5,6.98Z"/>
    <path class="cls-30" d="M328.09,183.91c-5.03,5.37-12.88,2.72-15.96,7.09-1.5,2.12-2.01,6.11,2.18,14.28,8.71-3.7,17.41-7.41,26.12-11.11-2.97-6.63-5.94-13.27-8.9-19.9-.1,2.94-.75,6.78-3.43,9.65Z"/>
    <g>
      <circle class="cls-5" cx="254.89" cy="61.5" r="24.57"/>
      <path class="cls-5" d="M241.78,83.36c-3.83,7.36-8.07,17.14-11.13,29.09-2.83,11.05-3.87,20.92-4.16,28.8,6.24,2.51,17.7,6.14,32.21,5.2,19.28-1.26,32.81-9.88,38.44-13.95-2.34-7.36-5.53-15.73-9.94-24.64-5.34-10.78-11.15-19.72-16.48-26.87"/>
      <path class="cls-20" d="M240.22,82.64c-2.88,2.65-6.28,6.31-9.43,11.15-4.89,7.52-7.1,14.71-8.17,19.61-4.93,1.43-9.85,2.87-14.78,4.3"/>
      <path class="cls-20" d="M272.46,81.45c8.95,2.44,17.9,4.88,26.84,7.31,1.59,2.65,3.58,6.61,4.83,11.74,1.18,4.87,1.29,9.1,1.13,12.1"/>
      <path class="cls-21" d="M251.94,146.43c-1.11,4.89-2.14,9.99-3.06,15.3-2.04,11.81-3.22,22.95-3.82,33.24"/>
      <path class="cls-21" d="M276.49,143.27c2.8,7.72,5.71,15.53,8.74,23.43,3.2,8.34,6.42,16.52,9.67,24.54"/>
      <path class="cls-22" d="M205.97,111.09c-.46-.28-4.45-2.63-6.58-1.04-.89.66-1.54,2.08-1.11,2.91.15.29.44.53,1.95.96.89.25,2.03.52,3.38.7-1.67,1.05-3.13,1.54-4.13,1.79-2.17.54-3.73.35-4.46,1.47-.3.46-.25.97-.28,1.87-.06,2.37.79,5.2,2.29,6.58,3.42,3.18,12.82,1.24,14.55-4.5,1.33-4.43-2.58-8.91-5.61-10.74Z"/>
      <path class="cls-22" d="M297,112.08c-.36.39-3.47,3.83-2.34,6.24.47,1.01,1.72,1.93,2.63,1.67.31-.09.61-.32,1.33-1.72.43-.82.92-1.88,1.37-3.17.69,1.85.88,3.37.92,4.41.1,2.23-.4,3.73.54,4.66.39.38.9.45,1.78.65,2.31.53,5.25.27,6.91-.92,3.8-2.72,3.79-12.31-1.49-15.16-4.08-2.2-9.24.74-11.65,3.34Z"/>
      <path class="cls-22" d="M243.38,190.48c-6.94,2.45-12.68-3.53-17.43-1.07-2.31,1.19-4.6,4.49-4.65,13.68l28.3,2.19c.43-7.26.85-14.51,1.28-21.77-1.44,2.56-3.79,5.67-7.5,6.98Z"/>
      <path class="cls-22" d="M289.96,183.87c-5.03,5.37-12.88,2.72-15.96,7.09-1.5,2.12-2.01,6.11,2.18,14.28,8.71-3.7,17.41-7.41,26.12-11.11-2.97-6.63-5.94-13.27-8.9-19.9-.1,2.94-.75,6.78-3.43,9.65Z"/>
    </g>
    <circle class="cls-9" cx="253.06" cy="61.5" r="24.57"/>
    <path class="cls-9" d="M239.95,83.36c-3.83,7.36-8.07,17.14-11.13,29.09-2.83,11.05-3.87,20.92-4.16,28.8,6.24,2.51,17.7,6.14,32.21,5.2,19.28-1.26,32.81-9.88,38.44-13.95-2.34-7.36-5.53-15.73-9.94-24.64-5.34-10.78-11.15-19.72-16.48-26.87"/>
    <path class="cls-7" d="M238.38,82.64c-2.88,2.65-6.28,6.31-9.43,11.15-4.89,7.52-7.1,14.71-8.17,19.61-4.93,1.43-9.85,2.87-14.78,4.3"/>
    <path class="cls-7" d="M270.63,81.45c8.95,2.44,17.9,4.88,26.84,7.31,1.59,2.65,3.58,6.61,4.83,11.74,1.18,4.87,1.29,9.1,1.13,12.1"/>
    <path class="cls-6" d="M250.11,146.43c-1.11,4.89-2.14,9.99-3.06,15.3-2.04,11.81-3.22,22.95-3.82,33.24"/>
    <path class="cls-6" d="M274.66,143.27c2.8,7.72,5.71,15.53,8.74,23.43,3.2,8.34,6.42,16.52,9.67,24.54"/>
    <ellipse class="cls-8" cx="255.31" cy="68.1" rx=".93" ry=".29" transform="translate(-5.31 111.69) rotate(-24.43)"/>
    <path class="cls-29" d="M256.21,76.06c2.02,1.31,4.74,1.72,7.02.91,2.71-.98,4.72-3.33,5.3-6.15.14-.66-.19-1.35-.87-1.54-.62-.17-1.4.21-1.54.87-.42,2.04-1.76,3.81-3.69,4.45-1.14.38-2.25.36-3.34.04-.22-.07-.44-.14-.65-.23-.15-.06.15.07-.06-.03-.09-.04-.18-.08-.26-.13-.22-.11-.43-.23-.63-.36-.57-.37-1.38-.11-1.71.45-.36.61-.12,1.34.45,1.71h0Z"/>
    <ellipse class="cls-8" cx="264.45" cy="65" rx=".93" ry=".29" transform="translate(-5.2 26.94) rotate(-5.77)"/>
    <path class="cls-36" d="M204.14,111.09c-.46-.28-4.45-2.63-6.58-1.04-.89.66-1.54,2.08-1.11,2.91.15.29.44.53,1.95.96.89.25,2.03.52,3.38.7-1.67,1.05-3.13,1.54-4.13,1.79-2.17.54-3.73.35-4.46,1.47-.3.46-.25.97-.28,1.87-.06,2.37.79,5.2,2.29,6.58,3.42,3.18,12.82,1.24,14.55-4.5,1.33-4.43-2.58-8.91-5.61-10.74Z"/>
    <path class="cls-36" d="M295.17,112.08c-.36.39-3.47,3.83-2.34,6.24.47,1.01,1.72,1.93,2.63,1.67.31-.09.61-.32,1.33-1.72.43-.82.92-1.88,1.37-3.17.69,1.85.88,3.37.92,4.41.1,2.23-.4,3.73.54,4.66.39.38.9.45,1.78.65,2.31.53,5.25.27,6.91-.92,3.8-2.72,3.79-12.31-1.49-15.16-4.08-2.2-9.24.74-11.65,3.34Z"/>
    <path class="cls-36" d="M241.55,190.48c-6.94,2.45-12.68-3.53-17.43-1.07-2.31,1.19-4.6,4.49-4.65,13.68l28.3,2.19c.43-7.26.85-14.51,1.28-21.77-1.44,2.56-3.79,5.67-7.5,6.98Z"/>
    <path class="cls-36" d="M288.13,183.87c-5.03,5.37-12.88,2.72-15.96,7.09-1.5,2.12-2.01,6.11,2.18,14.28,8.71-3.7,17.41-7.41,26.12-11.11-2.97-6.63-5.94-13.27-8.9-19.9-.1,2.94-.75,6.78-3.43,9.65Z"/>
    <g>
      <circle class="cls-15" cx="214.79" cy="61.39" r="24.57"/>
      <path class="cls-15" d="M201.68,83.25c-3.83,7.36-8.07,17.14-11.13,29.09-2.83,11.05-3.87,20.92-4.16,28.8,6.24,2.51,17.7,6.14,32.21,5.2,19.28-1.26,32.81-9.88,38.44-13.95-2.34-7.36-5.53-15.73-9.94-24.64-5.34-10.78-11.15-19.72-16.48-26.87"/>
      <path class="cls-4" d="M200.12,82.53c-2.88,2.65-6.28,6.31-9.43,11.15-4.89,7.52-7.1,14.71-8.17,19.61-4.93,1.43-9.85,2.87-14.78,4.3"/>
      <path class="cls-4" d="M232.37,81.34c8.95,2.44,17.9,4.88,26.84,7.31,1.59,2.65,3.58,6.61,4.83,11.74,1.18,4.87,1.29,9.1,1.13,12.1"/>
      <path class="cls-3" d="M211.85,146.32c-1.11,4.89-2.14,9.99-3.06,15.3-2.04,11.81-3.22,22.95-3.82,33.24"/>
      <path class="cls-3" d="M236.39,143.15c2.8,7.72,5.71,15.53,8.74,23.43,3.2,8.34,6.42,16.52,9.67,24.54"/>
      <path class="cls-35" d="M165.87,110.98c-.46-.28-4.45-2.63-6.58-1.04-.89.66-1.54,2.08-1.11,2.91.15.29.44.53,1.95.96.89.25,2.03.52,3.38.7-1.67,1.05-3.13,1.54-4.13,1.79-2.17.54-3.73.35-4.46,1.47-.3.46-.25.97-.28,1.87-.06,2.37.79,5.2,2.29,6.58,3.42,3.18,12.82,1.24,14.55-4.5,1.33-4.43-2.58-8.91-5.61-10.74Z"/>
      <path class="cls-35" d="M256.9,111.97c-.36.39-3.47,3.83-2.34,6.24.47,1.01,1.72,1.93,2.63,1.67.31-.09.61-.32,1.33-1.72.43-.82.92-1.88,1.37-3.17.69,1.85.88,3.37.92,4.41.1,2.23-.4,3.73.54,4.66.39.38.9.45,1.78.65,2.31.53,5.25.27,6.91-.92,3.8-2.72,3.79-12.31-1.49-15.16-4.08-2.2-9.24.74-11.65,3.34Z"/>
      <path class="cls-35" d="M203.28,190.37c-6.94,2.45-12.68-3.53-17.43-1.07-2.31,1.19-4.6,4.49-4.65,13.68l28.3,2.19c.43-7.26.85-14.51,1.28-21.77-1.44,2.56-3.79,5.67-7.5,6.98Z"/>
      <path class="cls-35" d="M249.86,183.75c-5.03,5.37-12.88,2.72-15.96,7.09-1.5,2.12-2.01,6.11,2.18,14.28,8.71-3.7,17.41-7.41,26.12-11.11-2.97-6.63-5.94-13.27-8.9-19.9-.1,2.94-.75,6.78-3.43,9.65Z"/>
    </g>
    <circle class="cls-13" cx="212.74" cy="61.54" r="24.57"/>
    <path class="cls-13" d="M199.63,83.4c-3.83,7.36-8.07,17.14-11.13,29.09-2.83,11.05-3.87,20.92-4.16,28.8,6.24,2.51,17.7,6.14,32.21,5.2,19.28-1.26,32.81-9.88,38.44-13.95-2.34-7.36-5.53-15.73-9.94-24.64-5.34-10.78-11.15-19.72-16.48-26.87"/>
    <path class="cls-12" d="M198.06,82.68c-2.88,2.65-6.28,6.31-9.43,11.15-4.89,7.52-7.1,14.71-8.17,19.61-4.93,1.43-9.85,2.87-14.78,4.3"/>
    <path class="cls-12" d="M230.31,81.49c8.95,2.44,17.9,4.88,26.84,7.31,1.59,2.65,3.58,6.61,4.83,11.74,1.18,4.87,1.29,9.1,1.13,12.1"/>
    <path class="cls-10" d="M209.79,146.47c-1.11,4.89-2.14,9.99-3.06,15.3-2.04,11.81-3.22,22.95-3.82,33.24"/>
    <path class="cls-10" d="M234.33,143.31c2.8,7.72,5.71,15.53,8.74,23.43,3.2,8.34,6.42,16.52,9.67,24.54"/>
    <ellipse class="cls-11" cx="214.98" cy="68.14" rx=".93" ry=".29" transform="translate(-8.93 95.02) rotate(-24.43)"/>
    <path class="cls-37" d="M215.88,76.1c2.02,1.31,4.74,1.72,7.02.91,2.71-.98,4.72-3.33,5.3-6.15.14-.66-.19-1.35-.87-1.54-.62-.17-1.4.21-1.54.87-.42,2.04-1.76,3.81-3.69,4.45-1.14.38-2.25.36-3.34.04-.22-.07-.44-.14-.65-.23-.15-.06.15.07-.06-.03-.09-.04-.18-.08-.26-.13-.22-.11-.43-.23-.63-.36-.57-.37-1.38-.11-1.71.45-.36.61-.12,1.34.45,1.71h0Z"/>
    <ellipse class="cls-11" cx="224.12" cy="65.04" rx=".93" ry=".29" transform="translate(-5.41 22.88) rotate(-5.77)"/>
    <path class="cls-33" d="M163.82,111.13c-.46-.28-4.45-2.63-6.58-1.04-.89.66-1.54,2.08-1.11,2.91.15.29.44.53,1.95.96.89.25,2.03.52,3.38.7-1.67,1.05-3.13,1.54-4.13,1.79-2.17.54-3.73.35-4.46,1.47-.3.46-.25.97-.28,1.87-.06,2.37.79,5.2,2.29,6.58,3.42,3.18,12.82,1.24,14.55-4.5,1.33-4.43-2.58-8.91-5.61-10.74Z"/>
    <path class="cls-33" d="M254.84,112.12c-.36.39-3.47,3.83-2.34,6.24.47,1.01,1.72,1.93,2.63,1.67.31-.09.61-.32,1.33-1.72.43-.82.92-1.88,1.37-3.17.69,1.85.88,3.37.92,4.41.1,2.23-.4,3.73.54,4.66.39.38.9.45,1.78.65,2.31.53,5.25.27,6.91-.92,3.8-2.72,3.79-12.31-1.49-15.16-4.08-2.2-9.24.74-11.65,3.34Z"/>
    <path class="cls-33" d="M201.23,190.52c-6.94,2.45-12.68-3.53-17.43-1.07-2.31,1.19-4.6,4.49-4.65,13.68l28.3,2.19c.43-7.26.85-14.51,1.28-21.77-1.44,2.56-3.79,5.67-7.5,6.98Z"/>
    <path class="cls-33" d="M247.8,183.91c-5.03,5.37-12.88,2.72-15.96,7.09-1.5,2.12-2.01,6.11,2.18,14.28,8.71-3.7,17.41-7.41,26.12-11.11-2.97-6.63-5.94-13.27-8.9-19.9-.1,2.94-.75,6.78-3.43,9.65Z"/>
  </g>
  <g>
    <text class="cls-32" transform="translate(92.22 149.9)"><tspan x="0" y="0">rd</tspan></text>
    <text class="cls-31" transform="translate(5.95 83.54)"><tspan x="0" y="0">my</tspan></text>
    <text class="cls-27" transform="translate(3 208.48)"><tspan x="0" y="0">3</tspan></text>
  </g>
  <g>
    <text class="cls-25" transform="translate(89.22 149.9)"><tspan x="0" y="0">rd</tspan></text>
    <text class="cls-26" transform="translate(2.95 83.54)"><tspan x="0" y="0">my</tspan></text>
    <text class="cls-23" transform="translate(0 208.48)"><tspan x="0" y="0">3</tspan></text>
  </g>
</svg>